<?xml version="1.0" encoding="utf-8"?>
<!-- Generator: Adobe Illustrator 12.0.0, SVG Export Plug-In . SVG Version: 6.00 Build 51448)  -->
<!DOCTYPE svg PUBLIC "-//W3C//DTD SVG 1.1//EN" "http://www.w3.org/Graphics/SVG/1.1/DTD/svg11.dtd" [
	<!ENTITY ns_svg "http://www.w3.org/2000/svg">
	<!ENTITY ns_xlink "http://www.w3.org/1999/xlink">
]>
<svg  version="1.1" id="Layer_1" xmlns="&ns_svg;" xmlns:xlink="&ns_xlink;" width="192.048" height="203.602"
	 viewBox="0 0 192.048 203.602" overflow="visible" enable-background="new 0 0 192.048 203.602" xml:space="preserve">
<g>
	<g>
		<path fill="#364182" stroke="#000000" stroke-width="1.1339" d="M83.005,45.172l-12.375,15.5v86.5l25.125,33.375l25.375-33.375
			v-86.5l-14.625-16.625C106.505,44.047,96.13,39.172,83.005,45.172z"/>
		<g>
			<g>
				<path fill="#72A051" stroke="#000000" stroke-width="0.75" d="M60.462,50.672v-4.625l-0.375-0.125v-3.125l-0.75-0.25v-3h-0.625
					v-2.375h-0.625v-1.625l-0.75-0.375v-2.375l-0.625-1l-5-11.125c0,0-3.375-5.25-7.25-6s-10.75,0.875-12.875,6.5
					c0,0,4.25-1.875,6-2.125s5.5-0.375,7.625,1.375c0,0-8.375-2.125-12.875,4.25c0,0,6.5-3,12.125-0.25c0,0-5.25,1.25-8.25,4.75
					c0,0,5.125-2.875,10.25-0.375c0,0-4.375,0.625-7.625,2.625l1,0.25c0,0,4.75-1.375,8.25,1.125c0,0-3.75-0.375-7.125,2.625
					c0,0,6-0.75,9.125,1.625c0,0-3.25-1.125-7,2.625c0,0,4.625-1.25,7.125,0.75c0,0-4.625,0.25-6.875,1.5c0,0,6.5-0.375,8.5,2
					c0,0-4.125-0.375-6.375,2c0,0,1.5-0.25,2.625-0.125s3.375-0.875,5.375,1.125s3.375,4.25,3.375,4.25L60.462,50.672z"/>
				<path fill="#EBC9A6" d="M53.712,31.422l0.625,0.75c0,0,2.375,1.75,1.75,3.125s-1.625,1.125-1.625,1.125l-0.75-1.125V31.422z"/>
				<path fill="#EBC9A6" d="M51.212,25.422l0.625,0.75c0,0,2.375,1.75,1.75,3.125s-1.625,1.125-1.625,1.125l-0.75-1.125V25.422z"/>
				<path fill="#EBC9A6" d="M47.212,21.922l0.625,0.75c0,0,2.375,1.75,1.75,3.125s-1.625,1.125-1.625,1.125l-0.75-1.125V21.922z"/>
				<path fill="#EBC9A6" d="M48.962,30.422l0.625,0.75c0,0,2.375,1.75,1.75,3.125s-1.625,1.125-1.625,1.125l-0.75-1.125V30.422z"/>
				<path fill="#EBC9A6" d="M51.462,36.047l0.625,0.75c0,0,2.375,1.75,1.75,3.125s-1.625,1.125-1.625,1.125l-0.75-1.125V36.047z"/>
				<path fill="#EBC9A6" d="M55.587,40.422l0.625,0.75c0,0,2.375,1.75,1.75,3.125s-1.625,1.125-1.625,1.125l-0.75-1.125V40.422z"/>
				<path fill="none" stroke="#000000" stroke-width="0.75" d="M47.337,23.297v-1.25l1.875,2.625c0,0,1,1.5,0.25,2
					s-2.125-0.5-2.125-0.5"/>
				<path fill="none" stroke="#000000" stroke-width="0.75" d="M51.462,29.172c0,0,1.125,2.25,2.25,0.5c0,0,0.5-1.25-0.25-2
					s-1.875-2.375-1.875-2.375v2.375"/>
				<path fill="none" stroke="#000000" stroke-width="0.75" d="M49.337,30.547c0,0,0.625,1,1.25,2s1,1.875,0.375,2.375
					s-1.5,0.375-1.5,0.375l-0.625-0.875v-1.75L49.337,30.547z"/>
				<path fill="none" stroke="#000000" stroke-width="0.75" d="M51.712,38.297v-1.5c0,0,0.5-0.125,1.375,0.875s1.5,1.5,1,2.25
					s-1.25,1.875-2.375,0"/>
				<path fill="none" stroke="#000000" stroke-width="0.75" d="M55.837,42.422v-2.25c0,0,0.625,1.25,1.5,2.25s1,1.5,0.5,2.25
					s-2.25-0.125-2.25-0.5"/>
				<path fill="none" stroke="#000000" stroke-width="0.75" d="M53.587,35.547c0,0,0.375-1,0.375-1.625s0-1.875,0-1.875
					s1.125,0.75,1.625,1.5s1.25,2.875-0.875,2.5"/>
			</g>
			<polygon fill="#C95242" stroke="#000000" points="43.962,145.546 44.295,146.212 45.962,146.38 46.212,147.13 47.379,147.13 
				47.879,154.879 46.712,155.379 49.045,158.379 53.212,158.462 53.879,158.962 54.295,161.712 55.379,160.546 56.379,160.546 
				57.212,160.212 57.545,160.296 57.462,161.712 56.295,162.712 58.295,163.462 60.295,161.879 60.462,160.212 61.629,158.88 
				61.712,160.962 62.712,161.462 67.545,159.296 69.045,161.046 70.962,160.88 72.045,160.546 72.962,160.629 73.629,161.63 
				74.629,161.879 74.629,162.379 75.045,164.296 76.712,163.546 77.212,161.796 76.629,160.879 76.379,159.129 76.045,157.546 
				75.129,157.046 75.712,155.962 74.879,154.462 75.545,153.296 74.962,152.046 73.045,152.046 72.545,151.046 69.629,150.712 
				69.212,151.212 67.212,150.462 62.879,149.546 60.212,149.212 57.629,146.962 57.296,141.796 56.712,140.796 56.796,134.462 
				56.796,132.462 56.046,130.63 53.629,129.13 49.879,125.296 47.212,124.212 45.879,122.712 44.296,121.796 42.046,120.546 
				39.212,119.962 33.046,124.296 33.129,130.546 36.712,139.88 36.962,144.712 36.962,145.796 			"/>
			<path fill="none" stroke="#000000" stroke-width="0.25" d="M51.545,109.796l-1-1.916c0,0,0.084-0.75-0.083-1.084
				s-1.75-2.416-1.75-2.416l-1.083-0.834l0.833,1.834l0.75,1.332l0.417,0.334v2l0.416,0.75l0.917,1.25L51.545,109.796z"/>
			<polygon fill="#FFFFFF" stroke="#000000" stroke-width="0.25" points="62.295,125.212 62.129,126.962 60.212,128.212 
				62.212,128.13 63.629,127.38 63.379,125.712 			"/>
			<path fill="#FFFFFF" stroke="#000000" stroke-width="0.25" d="M65.045,128.962l-0.5,1l-1.833,0.334l1.417,0.75
				c0,0,1.5,0,2.083-0.5s1-1.166,1-1.166l-1.25,0.082L65.045,128.962z"/>
			<path fill="#FFFFFF" stroke="#000000" stroke-width="0.25" d="M70.462,129.046l-0.917,1.166l-0.666,1h-1
				c0,0,0.334,1.418,2.25-0.166l1.166-1.084L70.462,129.046z"/>
			<polygon points="68.295,124.462 68.295,127.13 67.795,126.712 67.795,124.462 			"/>
			<polygon points="65.629,122.046 65.629,124.13 65.212,124.046 64.879,121.38 			"/>
			<polygon fill="#FFFFFF" points="77.212,161.796 76.379,160.63 75.212,160.962 75.045,162.38 75.045,164.296 76.712,163.546 			
				"/>
			<path fill="#DC6749" stroke="#000000" d="M56.462,53.797l-2.75-0.084l-0.75,2.167l-0.083,3l1.167,1.25
				c0,0-0.167,1.251,1.083,2.917s1.25,1.666,1.25,1.666l0.167,2.667l0.583,2.333l1.167,7.084l1,0.25l-0.084,2.083l-2.166,1.917
				l-3.584,0.333l3.25,5.833l0.75,4l2.334,1.167h5.333l2.5-1.583v-2.084l0.5-0.916l0.25-9.834l-0.583-1.333l0.083-5.833l-1.25-4.084
				l-1.167-3.833l-0.333-0.833l2.167-2.25l-0.5-2.834l-0.75-1.083l-2.167-0.667l-0.083-1.75l-1.334-0.916c0,0-1.416,0.25-1.416,0
				s-0.667-1.5-0.667-1.5l-0.75-1.084h-3.333l-0.75,1.417l-0.334,1.083L56.462,53.797z"/>
			<polyline fill="none" stroke="#000000" stroke-width="0.75" points="57.212,54.463 58.546,56.13 58.712,57.63 57.962,58.297 
				57.546,58.88 58.046,59.547 57.379,59.797 55.462,59.13 54.462,58.463 			"/>
			<polyline fill="none" stroke="#000000" stroke-width="0.75" points="64.129,55.797 62.462,56.63 61.462,57.88 61.712,59.38 
				63.046,60.297 63.296,60.963 63.296,61.63 65.129,62.047 			"/>
			<polyline fill="none" stroke="#000000" stroke-width="0.75" points="60.796,52.963 59.796,54.213 58.962,55.38 58.879,57.13 
				59.212,58.547 60.046,59.297 61.546,59.13 			"/>
			<path fill="#ED1C24" stroke="#000000" stroke-width="0.25" d="M33.462,63.047c0,0,0.916,0.5,2,0s1.166-1,3.25-1.084
				c2.084-0.082,2.333-0.416,3.75,0.418c1.417,0.832,0.918,1.582,3.584,0.416s2.833-1.333,2.833-2.166c0,0,1,0.582,0.25,1.832
				c0,0-3.083,3.334-4.833,2.918c0,0-1.917-0.918-2.917-1.168s-1.916,0.25-2.583,0.5s-1.334,1.834-1.334,1.834l-2,1l-1.75-0.917
				l-0.5-1.749L33.462,63.047z"/>
			<path fill="#FFFFFF" stroke="#000000" stroke-width="0.5" d="M45.296,56.297l-0.167,2.334l-0.417,0.75l-0.167,0.916l-0.75-0.584
				l-0.583,0.418v0.75l-2.583-0.168l-0.584-0.582h-1.916l-1.083-0.418h-1.084l-1.333,1.084l-0.417,1.25l-0.583,1.584l0.417,1.75
				l1.75,1.332l2.166-0.5l2-1.082c0,0,0.667-0.251,1.167-0.918c0.5-0.666,0.833-0.75,0.833-0.75s0.583,1.917-0.5,3l1.084,0.418
				l0.75,0.332l-0.167,0.5l1,0.668l-0.083,1.332l-1.834-1.166l-2.166-0.916l-3.334,0.25l-2.166,0.166c0,0-1.75-1-1.75-1.25
				s-1.084-3.166-1.084-3.166l0.417-2.584l2-3.334l2.583-2.25l1.417-1.25l1.333-0.582l3.334,0.916l2.833,0.75L45.296,56.297z"/>
			<path fill="#FFFFFF" stroke="#000000" stroke-width="0.4535" d="M22.879,184.713c0,0,0.916,3.75-1.167,4.333
				c0,0,0.667-2.501-1.583-3.417l0.5-1.833l1.667-0.833L22.879,184.713z"/>
			<path fill="#FFFFFF" stroke="#000000" stroke-width="0.4535" d="M26.796,184.796c0,0,0.166,4.167-1.084,4.667
				c0,0-1.75-3.333-2.75-4s0.584-1.667,0.584-1.667l1.25-0.333L26.796,184.796z"/>
			<path fill="#FFFFFF" stroke="#000000" stroke-width="0.4535" d="M28.546,183.879c0,0,1.082,0.584,0.916,1.917
				s-0.582,2.917-1.916,3.25c0,0,0.917-3.166-0.25-4.333S28.546,183.879,28.546,183.879z"/>
			<path fill="#DC6749" stroke="#000000" d="M41.295,51.047c0,0-0.029-0.063-0.085-0.17c-0.299-0.573-1.357-2.422-2.831-2.914
				c-1.75-0.583-7.417-1.416-7.417-1.416h-2.667l-5.333-0.5l-1.25-1.084l-1.917-1.333l-0.333,1.25l-1.083-0.167l1.916,1.75
				l-1.25,1.667l0.084,1.583l-0.167,2.918l-3.416-0.168c0,0-2.251,0.584-2.334,1.5c-0.083,0.918-0.25,1.668-0.25,1.668l4.417,4.166
				l1.333,0.416l-0.417,1.25l0.084,1.25l-0.834,0.584v1.334l-0.5,0.916v2.416l-0.75,1.168l0.167,2.416l0.417,1.834l-0.084,1.25
				l0.917,0.582l-0.083,1.584l1.166,1.084l0.75,1.75l2.167,2.166l2,1.584l3.25,3.582l0.417,1.084l0.916,1.666l0.334,1.418
				l-0.667,1.082l0.167,7.75l0.416,2.584l-0.916,1.833l-1.667,2.5l-0.833,4.082l-1.333,2.75c0,0-1.501,2.834-1.834,4.168
				c-0.333,1.332-1.583,5-1.583,5s-5.166,3.082-7.083,10.082c0,0-0.666,5.75-4.75,4.75s-3.918-5.416-2.834-8.832
				c1.084-3.418,4.084-11.918,4.084-11.918s4.499-9.166,5.666-12.25c1.167-3.083,3.001-7.666,2.917-13.75
				c-0.084-6.083-2-10.082-4.667-12.916s-5.083-3-6-2.334c-0.917,0.667-2.417,2.917-0.25,5.25c2.167,2.334,5.001,4.5,5.167,7.25
				s0,6,0,6s-1.249,6.25-3.333,10.333c-2.084,4.084-3.334,8.416-4.917,13.5s-5.917,13.668-2.75,20.834s8.999,7.5,13.833,4.416
				l0.083,3.25l0.75,0.084v4.832l0.584,0.084l-0.167,4.5l-0.667,1.416l-0.416,1.75l-1.584,2.334l-2-0.166l-0.833,2.666l-0.833,4
				l0.666,2.667c0,0-1.916,1.75-3.166,4.25l4.167-0.417c0,0-3.334,2.417-3.917,5.25c0,0,3.083-1.417,4.333-1.25l-3,4
				c0,0,2.917-1.917,3.667-1.75s-0.083,3.333-0.083,3.333l2.166,2.167l1.917,1.333l1-0.75l0.917-1.25h1.083l1.25-1.666l1.5,1.083
				l1.5-0.833l1,0.75l1.417-0.167l1.666-0.667l0.167-2.75l-1.417-1h0.834v-1.666l-0.917-1.334l-0.75-0.833l-1.167-0.667
				l-1.583,0.334l-0.083,1.083l-2.25-2.333l-0.334-6.75l1.917-2.751l1.416-0.083l6.917-6.333l0.833-1.75c0,0,6.25-4.417,6.5-11.166
				c0.25-6.75-1.083-8-1.083-8s-2.416-5.918-2.583-6.5c-0.167-0.584-1.75-3.668-0.667-5.168s4.5-4.916,4.5-4.916s3.917-1.166,5.75-2
				s3.417-2.834,3.417-2.834l2.5-4l0.833-2.666l1.5-0.334l0.75,1.25l0.333,2.75l0.75,0.918l0.75-1.334l1.167,2.666l0.917,1.584
				l0.833-2.75l0.917,0.916c0,0,3.082,1,3.416,2.418c0.334,1.416-0.166,2.416-0.166,2.416l-0.084,2.5l-0.166,2.334l1.333-0.084
				l0.167,1.75l0.833,0.584v1l1.333,1l2-0.75l1.917-0.584l1.167,2.166l1.833-3.582l-0.333-1l0.083-2.668l0.667-1.666l-0.5-1.75
				l-1.584-2.166c0,0-0.833-3.75-2.333-5.418c-1.5-1.666-1.583-2.748-1.75-3.832s-0.666-2.584-1.833-3.834s-2.333-2.583-2.333-2.917
				s-1-2-1-2l-0.75-1.667l-2-3.25c0,0-0.416-3.749-0.5-5.416s-0.833-3.584-1.25-4.334s-2.75-3.333-2.75-3.333
				s-0.168-2.083-1.584-3.667c-1.416-1.583-3.333-2.083-3.333-2.083l-5.5-1.75l-3.417-0.167l-2.083-3l1.5,0.167l0.667,0.833
				l1.416,0.75l1.167-1.333v-1.917l-1.667-1.416l-2.416-0.75h-2.417l-0.667,0.583l-1.833-0.333l-1.667-2.084l0.084-4.25l1.666-2.583
				l1.834-1.75l2.583-1.917l1.167-0.5l1.583,0.834l2.083,0.083l1.584,0.917l1.416-0.75l0.834-1.417l1-0.5l-0.75-1.667l-2.917-0.583
				l-0.25-0.5L41.295,51.047z"/>
			<path fill="#FADE4E" d="M50.795,104.462l-2.583-0.416l-1.167-0.834c0,0-3.832-0.666-4.666,0.5l2.916,0.918l2.084,0.25
				l-7.084,0.666l3.25,0.916l-3.75,0.918l4,1.25l-8.666,1.25l-0.5,2.75l0.333,1l-2.416,0.332l-4.834-0.416l2.5,2.416h-3l2,1.668
				l-3.25,0.5l4,3.166l-6.583-0.334l3.917,2.168l-2.417-0.25l1.5,2.166l-2.167,1.334l2.167,0.75l-4,0.582l2.25,0.918l-3.25,1.666
				c0,0,1.75-0.834,3.75,0s5.75,2.75,5.75,2.75l-5.417-0.5l-2.75,0.25l2.417,1.416l2.167,0.5l2.75,0.668l-0.834,0.916l3.334,2.834
				l-3.667-1c0,0,3.501,1.916,3.917,3c0.416,1.082-4.334,0.082-4.334,0.082l3.334,2.334l-3.584-0.666c0,0,2.583,1,3.75,2.25
				s-2.249,0-3.666,0.416c0,0,2.166,0.584,3.416,1.75c0,0-5.666-1.5-5.666,1.5c0,0,0.583-0.584,3.083-0.25
				c0,0-3.083,0.916-3.5,1.916l2.25,0.418l-2.917,1l2,1.25l-2.583,1.25l-1,0.666l2.083,1.25l-3.333,0.666c0,0,0.916,1,2.333,1.25
				s3.917,0.75,3.917,0.75s-3.416,0.918-4.833,1.168s-3.417,1.416-3.417,1.416l2-0.084c0,0-0.417,1.5-1.25,2.084s-2.167,1-2.167,1
				s0.25,2.999,0.25,4.333s0.001,1.751-0.666,3.334s-0.751,1.75-0.084,2.833s2.75,3.083,2.75,3.083l2.167,0.167
				c0,0,2.333,0.083,2.833,0.083s2,0,2,0l-1.416-1.583l-1.584-0.917l-1.333,0.334l0.167,1l-2.25-2.167l-0.584-6.833l1.917-2.751
				l1.167,0.001l6.333-5.751l0.75-0.916l1.333-1.834l3.917-4.25l1.916-4.166l0.251-4.666l-0.5-4.084l-1.334-3.75l-2.333-5.666
				l-0.583-2.5l0.583-1.668l4.333-4.666l3.333-1.166l2.667-1.168l2.583-1.832l1.667-2.584l1.917-3l0.333-1.75l1.417-0.834
				l0.666,1.418l0.417,2.75l0.833,1.25l1-2.084l1,3.084l1,1.666l0.667-2.5l0.917,0.916l1.583,0.668l0.75-0.834l1.5-2.166
				l-2.167,1.166l0.25-2.916l0.084-1.084l-1.084,1.916l-1.083-0.082l0.25-1.918l0.417-1.666l-0.584-0.916l-0.5,2.082l-0.583,0.084
				l-0.25-2.75l-0.25-1.334l-1.333,1.75l-0.75-1.666l0.833-1.084l0.25-1.5l-0.083-1.5l-1.667,1.75l-0.083,1.668l-0.584,1.5
				l-0.666-1.668l-0.584-1.666l-2.166-1L50.795,104.462z"/>
			<g>
				<g>
					<g>
						<g>
							<polygon points="43.046,120.796 40.629,123.962 39.212,126.63 39.296,129.046 40.379,130.796 40.629,132.63 41.379,127.462 
								42.296,125.462 43.046,123.212 44.712,121.796 							"/>
							<path d="M46.129,122.712l-0.75,1.75c0,0,0,4.584,0,4.834s0.917,0.584,0.667,2.334s-0.25,2.832-0.25,2.832l0.75,0.918
								l0.666-4.834v-3.166l1.5-2.834l-1.5-0.334L46.129,122.712z"/>
							<path d="M50.879,126.38l-1.167,2.416c0,0-0.083,6.166-0.083,6.916s-1.167,2.334-1.167,2.334l-1.416,1.334l2.25,0.166
								l0.833-0.916l1.583-1.25l0.25-5.084l0.917-1.584l0.833-1l0.334-0.666L50.879,126.38z"/>
							<path d="M16.712,155.63c0,0,4.416-1.75,5.25-1.75s2.834,0,2.834,0l3.583,1.5l-4.75,0.25c0,0-3.083,0.082-4,0.582
								s-3.75,2-3.75,2L16.712,155.63z"/>
							<path d="M17.046,152.38l-0.019-0.158l-0.398-3.26c0,0,1.583-1.166,3-1.666s4-1.084,4-1.084l1.75-0.25
								c0,0,3.083,0.25,3.583,0.25s-3.333,1-3.333,1l-2.917,1.584c0,0-0.833,0.416-2.083,1.166S17.046,152.38,17.046,152.38z"/>
							<path d="M16.296,146.462c0,0,3.667-4.166,5.25-4.916s3.333-1.416,3.333-1.416l3-0.584l2.75-0.584c0,0-1.083-1.082-3-1.25
								c-1.917-0.166-5.083,0-5.083,0s-1.584,0.668-2.417,1.168s-4.667,4.416-4.667,4.416l0.167,3L16.296,146.462z"/>
							<path d="M8.796,137.712c0,0-2.418,4.418-1.334,6.918c0,0-2.999-1.334-3.666-2.418c0,0,2.166-4.75,3.083-5.5L8.796,137.712z"
								/>
							<path d="M5.629,129.63l-0.333,2.75l-4.584,0.5l-0.166-3.084C0.546,129.796,4.962,129.046,5.629,129.63z"/>
							<path d="M9.212,118.13l-1.417,4.082c0,0-2.667-3.916-4-2.25l1.167-3.332C4.962,116.63,8.795,116.296,9.212,118.13z"/>
							<path d="M8.629,105.88l-1.667,3.332c0,0,4.583,0.918,5.083,2.5l1.667-3.25C13.712,108.462,12.379,105.63,8.629,105.88z"/>
							<path d="M18.045,95.713c0,0-0.666,4.251-1.333,5.584c0,0-2.5-3.084-5.25-1.834l0.667-2.416
								C12.129,97.047,14.545,94.297,18.045,95.713z"/>
							<path d="M17.629,84.88c0,0,0.583,3.167,0.583,4s0,0.167,0,0.167s-4.001-1.333-5.417,0.5l-0.166-1.917
								C12.629,87.63,13.629,84.88,17.629,84.88z"/>
							<path d="M15.296,79.88l-3-2.917l-3,5.834l1.083,1.25C10.379,84.047,11.88,80.963,15.296,79.88z"/>
						</g>
						<g>
							<path d="M20.129,80.131c0,0,3.166,0.082,4.083-0.168s3.916-1.833,4.833-2.5c0.917-0.666,1.75-1.416,2.417-1.5
								c0.667-0.082,3.833-0.416,3.833-0.416s-2.167,0.584-3.5,1.584s-1.5,1.582-2.833,2.916s-1.5,2-3,2.5s-2.833,0.5-2.833,0.5
								L20.129,80.131z"/>
							<path d="M16.879,73.381c0,0,1.334-0.334,2.5-0.084s1.334,1,3.5,1s2.917,0.333,4.25-0.334c1.333-0.666,2.082-1.083,2.916-1.5
								c0.834-0.416,3.5-2.25,3.5-2.25s-1.916-0.166-2.833-0.082c-0.917,0.082-1.416,0.75-2.333,1.5s-1.5,1.332-2.417,1.416
								s-1.833,0.333-2.833-0.584c-1-0.916-2.084-2.249-2.667-2.332c-0.583-0.084-3.917,0-3.917,0L16.879,73.381z"/>
							<path d="M32.796,64.63l-2.25,0.417c0,0-0.583,0.25-2,0.25s-4.334-0.334-4.334-0.334l3,1.834c0,0,1.833,0.166,3.5,0.166
								s3-0.333,3-0.333l-0.75-1.083L32.796,64.63z"/>
							<path d="M34.712,58.38l-1.833,2.333l-2.083-0.166c0,0-3.251-2.333-3.584-2.75s1.917,0.666,2.667,0.666
								S34.712,58.38,34.712,58.38z"/>
							<path d="M19.296,50.38c0,0,0.999-0.833,2.916-0.833s4,0,4.25,0s1.75,0.833,1.75,0.833s-1.749,0.083-3.916,0.25
								s-2.917,0.5-2.917,0.5l-2,0.917L19.296,50.38z"/>
						</g>
					</g>
					<g>
						<path d="M26.379,85.881c0,0,3.084,1,5.25-0.834s2-2.584,2-2.584s0.833-2,1.833-2.5s2.833-1.25,2.833-1.25l2.084,0.084
							c0,0-1.334,0.25-2.167,1.583s-3,4.667-3,4.667s-2.584,4.75-7.167,3.833l-1.083-1.167l-0.667-2L26.379,85.881z"/>
						<path d="M27.879,93.713c0,0,1.417-0.083,2.75-0.833s2.832-2,3.166-2.417c0.334-0.416,2.25-1.832,2.75-2.416
							s1.334-1.25,1.667-1.25s3.083,0.083,3.083,0.083s-0.25,0.75-0.833,1.25s-1.417,0.25-1.917,0.583
							c-0.5,0.334-0.332,0.834-1.166,2c-0.834,1.167-2.584,3.251-3.917,3.834s-5.417,1.5-5.417,1.5L27.879,93.713z"/>
						<path d="M28.379,99.047c0,0,1.916-0.667,3.333-0.667s3.083-0.333,4.5,0.417s2.75,0.666,4.75,1.416s4.083,0.834,5.5,0.834
							c0,0-2.25,1.583-7.5,1c0,0-2.749-0.583-4.333-1s-5.75,0.166-6.167,0.666L28.379,99.047z"/>
						<path d="M28.129,103.38c0,0,1.667,0.334,3.75,0.75s2.499,0.582,4.083,1.916s1.75,1.5,2.917,1.584
							c1.167,0.082,4.75,0.416,4.75,0.416h2.417c0,0-2,1.334-3.5,1.916c-1.5,0.584-3.5,0.502-5,0.418s-1.417,0.416-2.917-1.084
							s-1.834-1.916-2.917-2.334c-1.083-0.416-2.917-0.832-3.75-0.666s-2,0.584-2,0.584L28.129,103.38z"/>
						<path d="M25.129,110.712c0,0,1.167-0.998,3-0.332s3.833,1.832,3.833,1.832l2.834,2.584l2.5,1.166l2,0.334l-2.834,0.916
							c0,0-2.084,0.418-3.25,0c-1.166-0.416-2.666-2.166-2.666-2.166l-3.584-2.084c0,0-0.583-0.332-1.583,0.168
							s-1.75,0.832-1.75,0.832L25.129,110.712z"/>
						<path d="M21.962,117.88c0,0,2.418-1,3.834,0.082c1.416,1.084,4.333,2.584,4.333,2.584s1.416,1.25,1.833,1.25s3,0.334,3,0.334
							l-3.916,0.25l-2.917-0.168l-1.667-1l-2.166-0.5l-1.25-0.5l-1.75,0.25L21.962,117.88z"/>
						<path d="M18.879,123.962l2.667,0.5l3.083,1.418l2.167,0.666l1.25,0.416l1.916,0.25l1.417,0.25l-3.167,0.918l-2.333-0.334
							l-2.583-0.666l-1.084-0.418c0,0-3.834-0.416-5-0.25l-0.75,0.084L18.879,123.962z"/>
						<path d="M13.879,131.546l-1.5,4.25c0,0,1.083,0.5,2.25-0.416c1.167-0.918,1.501-1.666,3.417-2s4.833-0.334,4.833-0.334h2.083
							c0,0,2.334,0,2.584,0s2.833,0.5,2.833,0.5l1.583,0.5c0,0-2.333-1.75-4.333-2.084c-2-0.332-4-0.75-4-0.75
							s-1.416-0.082-1.833-0.332s0.584-0.75-1.75-0.668c-2.334,0.084-3.084,0.75-3.584,1s-1.416,0.418-1.416,0.418L13.879,131.546z"
							/>
						<polygon points="47.295,117.38 46.629,116.212 45.295,115.546 43.629,115.462 43.462,115.046 40.129,114.88 39.295,113.962 
							37.712,113.88 37.545,112.462 38.545,112.88 39.212,113.546 40.295,114.046 45.045,113.796 45.295,113.212 46.962,113.212 
							47.962,113.296 50.212,113.296 48.962,114.796 						"/>
						<polygon points="62.545,101.213 60.129,102.547 57.879,104.296 56.629,105.796 55.379,106.046 57.629,105.63 59.962,104.962 
							61.545,104.212 63.295,103.38 63.962,103.046 						"/>
						<path d="M60.795,97.797l-1.583,1.333l-2,0.917l-2,0.416l-1.75,0.25l1.833-1.166c0,0,1.25-1.25,1.667-1.584
							c0.417-0.333,0.833-0.833,0.833-0.833s1.001-0.083,1.334-0.333s1-0.667,1-0.667L60.795,97.797z"/>
						<path d="M65.795,105.546l0.834,1.666l-0.917,1.5l-1,1.168l-1.75,0.332h-2.833c0,0,0.334-0.332,1-0.666
							s1.416-1.084,1.416-1.084l0.584-0.832c0,0,0.416,0.25,1.083,0.082c0.667-0.166,1.167-0.832,1.167-0.832l0.416-1.584V105.546z"
							/>
					</g>
				</g>
				<g>
					<path d="M57.795,72.213c0,0,5.168,1.834,6.834,3.334c0,0,1.416,1.25,1.333,4.584c0,0-3.834-4.5-7.417-4.584l-0.5-0.084
						L57.795,72.213z"/>
					<path d="M58.712,78.881c0,0,3.75,1.082,4.75,2.332s1.5,2.584,1.25,4.75c0,0-0.5-1.582-2.25-2.832s-4.75-2.75-4.75-2.75
						L58.712,78.881z"/>
				</g>
			</g>
			<path fill="#FADE4E" d="M38.629,70.963c0,0-3.083-3.999-6.75,0.584c0,0,2.583-0.166,3.833,0.5c0,0-3.582,0.5-4.416,2.75
				c0,0,4.666-0.833,5.583-0.75c0,0-2.917,1.917-3.5,3.75l3.083-0.667l-1.75,2.917c0,0,3.75-2.5,4.917-2.5
				c0,0-1.749,3.083-0.583,4.583c0,0,1.332-2.416,2.666-2.333l-1.416,3.25c0,0,2.834-1.666,3.75-1.75c0,0-1.417,2.5-0.917,3.583
				c0,0,1.917-3.917,5.417-2.417c0,0-3.333,0.834-3.167,3.834c0,0,2.167-5.084,6.5-2.084l1.666,2.334l0.834,0.166
				c0,0,0,1.917,1.25,3.5c1.25,1.584,3.083,3.668,3.083,3.668l-0.25-5.918l-1.75-3.75l-1.917-2.416c0,0-0.583-2.75-1.416-3.667
				s-3.25-2.25-3.25-2.25l-4.167-1.417l-1.833-0.583l-3.417,0.083l-0.916-1.25L38.629,70.963z"/>
			<polyline fill="#FADE4E" points="48.462,157.212 52.212,157.212 54.629,157.13 55.045,156.38 57.295,154.796 56.879,157.546 
				58.462,155.88 59.129,155.63 59.212,154.046 60.379,153.88 60.129,155.046 58.962,156.212 59.045,159.63 60.379,157.13 
				60.379,156.046 62.129,155.88 62.962,154.546 62.795,157.796 64.379,157.462 65.545,156.296 67.712,156.13 65.795,157.962 
				67.295,158.546 68.462,157.712 70.545,156.712 72.379,156.712 71.462,158.462 72.129,159.63 73.295,160.046 74.462,161.296 
				74.295,161.712 73.629,161.63 72.545,160.38 71.712,160.38 70.962,160.88 69.379,160.88 67.212,158.88 62.712,161.462 
				61.795,160.546 61.629,158.88 60.712,160.046 60.295,161.046 59.629,162.546 58.129,163.13 56.295,162.712 57.545,161.88 
				57.545,160.296 56.379,160.546 55.379,160.546 54.545,161.712 53.879,158.962 53.212,158.462 51.545,158.38 49.295,158.296 
				48.462,157.38 			"/>
			<g>
				<path fill="#FFFFFF" d="M33.462,53.381c0,0,2.001,1.082,3.084,1.082l-2.25,1.918h-2.167l-0.667-0.501l1.917-0.917L33.462,53.381
					z"/>
				<path d="M32.546,51.797c0,0-2.168-0.167-3.584,0.333s-1.416,1.25-2.333,1.75l-0.833,0.083c0,0,0.667-0.083,2.25,0.75
					c1.583,0.834,2.833,1.584,2.833,1.584s0.333,0.416,1.333,0.416s2.834,0,2.834,0l1.25,0.167l2.666-2.417h-3.166
					c0,0,0.083,1-0.917,1.417s-1.917,0.417-1.917,0.417l-1.25-0.167l-0.25-0.25c0,0,0.666,0.25,1.5-0.5s1.084-1.417,1.084-1.417
					l-0.5-1.083C33.546,52.88,33.046,51.714,32.546,51.797z"/>
				<path fill="#FFFFFF" d="M29.462,53.297l-1.833,0.166l-0.583,0.25c0,0,1.166,0.167,2.166,0.917l0.667,0.417
					C29.879,55.047,29.295,53.631,29.462,53.297z"/>
				<path fill="#FFFFFF" d="M32.379,52.297c0,0-1.25-0.333-1.5,0.25s-0.583,0.916-0.25,1.416s0.167,0.917,1,0.75
					c0.833-0.166,0.666,0.334,0.833-0.166S33.296,53.047,32.379,52.297z"/>
			</g>
			<path d="M22.046,56.547l-1.75-0.167l-2-2.25l-1.5-0.583c0,0-1.668,0.084-2.084,0.5s-0.5,0.75,0,1.416
				c0.5,0.667,0.667,1.5,1.417,1.5l0.667-0.083c0,0-0.084,1.501,1.416,1.417c0,0,0.501,1.417,1.834,1.25l1-0.334
				c0,0,0.084-0.75,0.75-1.083L22.046,56.547z"/>
			<polygon fill="#6C9F49" stroke="#000000" stroke-width="0.75" points="62.212,62.797 61.962,65.047 62.129,68.297 61.879,69.463 
				59.796,69.38 59.796,67.38 58.962,66.88 58.962,63.213 58.462,61.797 58.462,60.047 61.796,60.213 			"/>
			<polygon fill="#FFFFFF" stroke="#000000" stroke-width="0.25" points="63.296,61.63 61.879,62.963 62.295,59.797 63.545,61.547 
							"/>
			<path fill="#FFFFFF" stroke="#000000" stroke-width="0.25" d="M61.67,59.672l-0.125,1.209c0,0-0.291,0.125-0.458,0.875
				s-0.25,1.25-0.25,1.25l-0.75-1.125l0.042-1.293l-0.042-1.082C60.087,59.506,60.753,58.672,61.67,59.672z"/>
			<path fill="#FFFFFF" stroke="#000000" stroke-width="0.25" d="M58.879,57.963l0.833,1.75l0.083,0.709l-0.791-0.5l-1.084-1.209
				C57.92,58.713,57.796,58.255,58.879,57.963z"/>
		</g>
		<g>
			<g>
				<path fill="#72A051" stroke="#000000" stroke-width="0.75" d="M131.585,50.672v-4.625l0.375-0.125v-3.125l0.75-0.25v-3h0.625
					v-2.375h0.625v-1.625l0.75-0.375v-2.375l0.625-1l5-11.125c0,0,3.375-5.25,7.25-6s10.75,0.875,12.875,6.5c0,0-4.25-1.875-6-2.125
					s-5.5-0.375-7.625,1.375c0,0,8.375-2.125,12.875,4.25c0,0-6.5-3-12.125-0.25c0,0,5.25,1.25,8.25,4.75
					c0,0-5.125-2.875-10.25-0.375c0,0,4.375,0.625,7.625,2.625l-1,0.25c0,0-4.75-1.375-8.25,1.125c0,0,3.75-0.375,7.125,2.625
					c0,0-6-0.75-9.125,1.625c0,0,3.25-1.125,7,2.625c0,0-4.625-1.25-7.125,0.75c0,0,4.625,0.25,6.875,1.5c0,0-6.5-0.375-8.5,2
					c0,0,4.125-0.375,6.375,2c0,0-1.5-0.25-2.625-0.125s-3.375-0.875-5.375,1.125s-3.375,4.25-3.375,4.25L131.585,50.672z"/>
				<path fill="#EBC9A6" d="M138.335,31.422l-0.625,0.75c0,0-2.375,1.75-1.75,3.125s1.625,1.125,1.625,1.125l0.75-1.125V31.422z"/>
				<path fill="#EBC9A6" d="M140.835,25.422l-0.625,0.75c0,0-2.375,1.75-1.75,3.125s1.625,1.125,1.625,1.125l0.75-1.125V25.422z"/>
				<path fill="#EBC9A6" d="M144.835,21.922l-0.625,0.75c0,0-2.375,1.75-1.75,3.125s1.625,1.125,1.625,1.125l0.75-1.125V21.922z"/>
				<path fill="#EBC9A6" d="M143.085,30.422l-0.625,0.75c0,0-2.375,1.75-1.75,3.125s1.625,1.125,1.625,1.125l0.75-1.125V30.422z"/>
				<path fill="#EBC9A6" d="M140.585,36.047l-0.625,0.75c0,0-2.375,1.75-1.75,3.125s1.625,1.125,1.625,1.125l0.75-1.125V36.047z"/>
				<path fill="#EBC9A6" d="M136.46,40.422l-0.625,0.75c0,0-2.375,1.75-1.75,3.125s1.625,1.125,1.625,1.125l0.75-1.125V40.422z"/>
				<path fill="none" stroke="#000000" stroke-width="0.75" d="M144.71,23.297v-1.25l-1.875,2.625c0,0-1,1.5-0.25,2
					s2.125-0.5,2.125-0.5"/>
				<path fill="none" stroke="#000000" stroke-width="0.75" d="M140.585,29.172c0,0-1.125,2.25-2.25,0.5c0,0-0.5-1.25,0.25-2
					s1.875-2.375,1.875-2.375v2.375"/>
				<path fill="none" stroke="#000000" stroke-width="0.75" d="M142.71,30.547c0,0-0.625,1-1.25,2s-1,1.875-0.375,2.375
					s1.5,0.375,1.5,0.375l0.625-0.875v-1.75L142.71,30.547z"/>
				<path fill="none" stroke="#000000" stroke-width="0.75" d="M140.335,38.297v-1.5c0,0-0.5-0.125-1.375,0.875s-1.5,1.5-1,2.25
					s1.25,1.875,2.375,0"/>
				<path fill="none" stroke="#000000" stroke-width="0.75" d="M136.21,42.422v-2.25c0,0-0.625,1.25-1.5,2.25s-1,1.5-0.5,2.25
					s2.25-0.125,2.25-0.5"/>
				<path fill="none" stroke="#000000" stroke-width="0.75" d="M138.46,35.547c0,0-0.375-1-0.375-1.625s0-1.875,0-1.875
					s-1.125,0.75-1.625,1.5s-1.25,2.875,0.875,2.5"/>
			</g>
			<polygon fill="#C95242" stroke="#000000" points="148.085,145.546 147.753,146.212 146.085,146.38 145.835,147.13 
				144.669,147.13 144.169,154.879 145.335,155.379 143.003,158.379 138.835,158.462 138.169,158.962 137.753,161.712 
				136.669,160.546 135.669,160.546 134.835,160.212 134.503,160.296 134.585,161.712 135.753,162.712 133.753,163.462 
				131.753,161.879 131.585,160.212 130.419,158.88 130.335,160.962 129.335,161.462 124.503,159.296 123.003,161.046 
				121.085,160.88 120.003,160.546 119.085,160.629 118.419,161.63 117.419,161.879 117.419,162.379 117.003,164.296 
				115.335,163.546 114.835,161.796 115.419,160.879 115.669,159.129 116.003,157.546 116.919,157.046 116.335,155.962 
				117.169,154.462 116.503,153.296 117.085,152.046 119.003,152.046 119.503,151.046 122.419,150.712 122.835,151.212 
				124.835,150.462 129.169,149.546 131.835,149.212 134.419,146.962 134.751,141.796 135.335,140.796 135.251,134.462 
				135.251,132.462 136.001,130.63 138.419,129.13 142.169,125.296 144.835,124.212 146.169,122.712 147.751,121.796 
				150.001,120.546 152.835,119.962 159.001,124.296 158.919,130.546 155.335,139.88 155.085,144.712 155.085,145.796 			"/>
			<path fill="none" stroke="#000000" stroke-width="0.25" d="M140.503,109.796l1-1.916c0,0-0.084-0.75,0.082-1.084
				c0.168-0.334,1.75-2.416,1.75-2.416l1.084-0.834l-0.834,1.834l-0.75,1.332l-0.416,0.334v2l-0.416,0.75l-0.918,1.25
				L140.503,109.796z"/>
			<polygon fill="#FFFFFF" stroke="#000000" stroke-width="0.25" points="129.753,125.212 129.919,126.962 131.835,128.212 
				129.835,128.13 128.419,127.38 128.669,125.712 			"/>
			<path fill="#FFFFFF" stroke="#000000" stroke-width="0.25" d="M127.003,128.962l0.5,1l1.832,0.334l-1.416,0.75
				c0,0-1.5,0-2.084-0.5c-0.582-0.5-1-1.166-1-1.166l1.25,0.082L127.003,128.962z"/>
			<path fill="#FFFFFF" stroke="#000000" stroke-width="0.25" d="M121.585,129.046l0.918,1.166l0.666,1h1
				c0,0-0.334,1.418-2.25-0.166l-1.166-1.084L121.585,129.046z"/>
			<polygon points="123.753,124.462 123.753,127.13 124.253,126.712 124.253,124.462 			"/>
			<polygon points="126.419,122.046 126.419,124.13 126.835,124.046 127.169,121.38 			"/>
			<polygon fill="#FFFFFF" points="114.835,161.796 115.669,160.63 116.835,160.962 117.003,162.38 117.003,164.296 
				115.335,163.546 			"/>
			<path fill="#DC6749" stroke="#000000" d="M135.585,53.797l2.75-0.084l0.75,2.167l0.084,3l-1.168,1.25
				c0,0,0.168,1.251-1.082,2.917s-1.25,1.666-1.25,1.666l-0.168,2.667l-0.582,2.333l-1.168,7.084l-1,0.25l0.084,2.083l2.166,1.917
				l3.584,0.333l-3.25,5.833l-0.75,4l-2.334,1.167h-5.332l-2.5-1.583v-2.084l-0.5-0.916l-0.25-9.834l0.582-1.333l-0.082-5.833
				l1.25-4.084l1.166-3.833l0.334-0.833l-2.168-2.25l0.5-2.834l0.75-1.083l2.168-0.667l0.082-1.75l1.334-0.916
				c0,0,1.416,0.25,1.416,0s0.668-1.5,0.668-1.5l0.75-1.084h3.332l0.75,1.417l0.334,1.083L135.585,53.797z"/>
			<polyline fill="none" stroke="#000000" stroke-width="0.75" points="134.835,54.463 133.501,56.13 133.335,57.63 134.085,58.297 
				134.501,58.88 134.001,59.547 134.669,59.797 136.585,59.13 137.585,58.463 			"/>
			<polyline fill="none" stroke="#000000" stroke-width="0.75" points="127.919,55.797 129.585,56.63 130.585,57.88 130.335,59.38 
				129.001,60.297 128.751,60.963 128.751,61.63 126.919,62.047 			"/>
			<polyline fill="none" stroke="#000000" stroke-width="0.75" points="131.251,52.963 132.251,54.213 133.085,55.38 133.169,57.13 
				132.835,58.547 132.001,59.297 130.501,59.13 			"/>
			<path fill="#ED1C24" stroke="#000000" stroke-width="0.25" d="M158.585,63.047c0,0-0.916,0.5-2,0s-1.166-1-3.25-1.084
				c-2.084-0.082-2.332-0.416-3.75,0.418c-1.416,0.832-0.918,1.582-3.584,0.416s-2.832-1.333-2.832-2.166c0,0-1,0.582-0.25,1.832
				c0,0,3.082,3.334,4.832,2.918c0,0,1.918-0.918,2.918-1.168s1.916,0.25,2.582,0.5c0.668,0.25,1.334,1.834,1.334,1.834l2,1
				l1.75-0.917l0.5-1.749L158.585,63.047z"/>
			<path fill="#FFFFFF" stroke="#000000" stroke-width="0.5" d="M146.751,56.297l0.168,2.334l0.416,0.75l0.168,0.916l0.75-0.584
				l0.582,0.418v0.75l2.584-0.168l0.584-0.582h1.916l1.082-0.418h1.084l1.334,1.084l0.416,1.25l0.584,1.584l-0.418,1.75l-1.75,1.332
				l-2.166-0.5l-2-1.082c0,0-0.666-0.251-1.166-0.918c-0.5-0.666-0.834-0.75-0.834-0.75s-0.582,1.917,0.5,3l-1.084,0.418
				l-0.75,0.332l0.168,0.5l-1,0.668l0.082,1.332l1.834-1.166l2.166-0.916l3.334,0.25l2.166,0.166c0,0,1.75-1,1.75-1.25
				s1.084-3.166,1.084-3.166l-0.416-2.584l-2-3.334l-2.584-2.25l-1.416-1.25l-1.334-0.582l-3.334,0.916l-2.832,0.75L146.751,56.297z
				"/>
			<path fill="#FFFFFF" stroke="#000000" stroke-width="0.4535" d="M169.169,184.713c0,0-0.916,3.75,1.166,4.333
				c0,0-0.666-2.501,1.584-3.417l-0.5-1.833l-1.668-0.833L169.169,184.713z"/>
			<path fill="#FFFFFF" stroke="#000000" stroke-width="0.4535" d="M165.251,184.796c0,0-0.166,4.167,1.084,4.667
				c0,0,1.75-3.333,2.75-4s-0.584-1.667-0.584-1.667l-1.25-0.333L165.251,184.796z"/>
			<path fill="#FFFFFF" stroke="#000000" stroke-width="0.4535" d="M163.501,183.879c0,0-1.082,0.584-0.916,1.917
				s0.582,2.917,1.916,3.25c0,0-0.916-3.166,0.25-4.333C165.919,183.546,163.501,183.879,163.501,183.879z"/>
			<path fill="#DC6749" stroke="#000000" d="M150.753,51.047c0,0,0.029-0.063,0.084-0.17c0.299-0.573,1.357-2.422,2.832-2.914
				c1.75-0.583,7.416-1.416,7.416-1.416h2.668l5.332-0.5l1.25-1.084l1.918-1.333l0.332,1.25l1.084-0.167l-1.916,1.75l1.25,1.667
				l-0.084,1.583l0.166,2.918l3.416-0.168c0,0,2.252,0.584,2.334,1.5c0.084,0.918,0.25,1.668,0.25,1.668l-4.416,4.166l-1.334,0.416
				l0.418,1.25l-0.084,1.25l0.834,0.584v1.334l0.5,0.916v2.416l0.75,1.168l-0.168,2.416l-0.416,1.834l0.084,1.25l-0.918,0.582
				l0.084,1.584l-1.166,1.084l-0.75,1.75l-2.168,2.166l-2,1.584l-3.25,3.582l-0.416,1.084l-0.916,1.666l-0.334,1.418l0.666,1.082
				l-0.166,7.75l-0.416,2.584l0.916,1.833l1.666,2.5l0.834,4.082l1.332,2.75c0,0,1.502,2.834,1.834,4.168
				c0.334,1.332,1.584,5,1.584,5s5.166,3.082,7.082,10.082c0,0,0.666,5.75,4.75,4.75s3.918-5.416,2.834-8.832
				c-1.084-3.418-4.084-11.918-4.084-11.918s-4.498-9.166-5.666-12.25c-1.166-3.083-3-7.666-2.916-13.75
				c0.084-6.083,2-10.082,4.666-12.916c2.668-2.834,5.084-3,6-2.334c0.918,0.667,2.418,2.917,0.25,5.25
				c-2.166,2.334-5,4.5-5.166,7.25s0,6,0,6s1.248,6.25,3.332,10.333c2.084,4.084,3.334,8.416,4.918,13.5
				c1.582,5.084,5.916,13.668,2.75,20.834c-3.168,7.166-9,7.5-13.834,4.416l-0.082,3.25l-0.75,0.084v4.832l-0.584,0.084l0.166,4.5
				l0.668,1.416l0.416,1.75l1.584,2.334l2-0.166l0.832,2.666l0.834,4l-0.666,2.667c0,0,1.916,1.75,3.166,4.25l-4.168-0.417
				c0,0,3.334,2.417,3.918,5.25c0,0-3.084-1.417-4.334-1.25l3,4c0,0-2.916-1.917-3.666-1.75s0.082,3.333,0.082,3.333l-2.166,2.167
				l-1.916,1.333l-1-0.75l-0.918-1.25h-1.082l-1.25-1.666l-1.5,1.083l-1.5-0.833l-1,0.75l-1.418-0.167l-1.666-0.667l-0.166-2.75
				l1.416-1h-0.834v-1.666l0.918-1.334l0.75-0.833l1.166-0.667l1.584,0.334l0.082,1.083l2.25-2.333l0.334-6.75l-1.916-2.751
				l-1.416-0.083l-6.918-6.333l-0.832-1.75c0,0-6.25-4.417-6.5-11.166c-0.25-6.75,1.082-8,1.082-8s2.416-5.918,2.584-6.5
				c0.166-0.584,1.75-3.668,0.666-5.168c-1.082-1.5-4.5-4.916-4.5-4.916s-3.916-1.166-5.75-2c-1.832-0.834-3.416-2.834-3.416-2.834
				l-2.5-4l-0.834-2.666l-1.5-0.334l-0.75,1.25l-0.332,2.75l-0.75,0.918l-0.75-1.334l-1.168,2.666l-0.916,1.584l-0.834-2.75
				l-0.916,0.916c0,0-3.082,1-3.416,2.418c-0.334,1.416,0.166,2.416,0.166,2.416l0.084,2.5l0.166,2.334l-1.334-0.084l-0.166,1.75
				l-0.834,0.584v1l-1.332,1l-2-0.75l-1.918-0.584l-1.166,2.166l-1.834-3.582l0.334-1l-0.084-2.668l-0.666-1.666l0.5-1.75
				l1.584-2.166c0,0,0.832-3.75,2.332-5.418c1.5-1.666,1.584-2.748,1.75-3.832c0.168-1.084,0.666-2.584,1.834-3.834
				c1.166-1.25,2.332-2.583,2.332-2.917s1-2,1-2l0.75-1.667l2-3.25c0,0,0.416-3.749,0.5-5.416s0.834-3.584,1.25-4.334
				c0.418-0.75,2.75-3.333,2.75-3.333s0.168-2.083,1.584-3.667c1.416-1.583,3.334-2.083,3.334-2.083l5.5-1.75l3.416-0.167l2.084-3
				l-1.5,0.167l-0.668,0.833l-1.416,0.75l-1.166-1.333v-1.917l1.666-1.416l2.416-0.75h2.418l0.666,0.583l1.834-0.333l1.666-2.084
				l-0.084-4.25l-1.666-2.583l-1.834-1.75l-2.582-1.917l-1.168-0.5l-1.582,0.834l-2.084,0.083l-1.584,0.917l-1.416-0.75
				l-0.834-1.417l-1-0.5l0.75-1.667l2.918-0.583l0.25-0.5L150.753,51.047z"/>
			<path fill="#FADE4E" d="M141.253,104.462l2.582-0.416l1.168-0.834c0,0,3.832-0.666,4.666,0.5l-2.916,0.918l-2.084,0.25
				l7.084,0.666l-3.25,0.916l3.75,0.918l-4,1.25l8.666,1.25l0.5,2.75l-0.334,1l2.416,0.332l4.834-0.416l-2.5,2.416h3l-2,1.668
				l3.25,0.5l-4,3.166l6.584-0.334l-3.918,2.168l2.418-0.25l-1.5,2.166l2.166,1.334l-2.166,0.75l4,0.582l-2.25,0.918l3.25,1.666
				c0,0-1.75-0.834-3.75,0s-5.75,2.75-5.75,2.75l5.416-0.5l2.75,0.25l-2.416,1.416l-2.168,0.5l-2.75,0.668l0.834,0.916l-3.334,2.834
				l3.668-1c0,0-3.502,1.916-3.918,3c-0.416,1.082,4.334,0.082,4.334,0.082l-3.334,2.334l3.584-0.666c0,0-2.582,1-3.75,2.25
				c-1.166,1.25,2.25,0,3.666,0.416c0,0-2.166,0.584-3.416,1.75c0,0,5.666-1.5,5.666,1.5c0,0-0.582-0.584-3.082-0.25
				c0,0,3.082,0.916,3.5,1.916l-2.25,0.418l2.916,1l-2,1.25l2.584,1.25l1,0.666l-2.084,1.25l3.334,0.666c0,0-0.916,1-2.334,1.25
				c-1.416,0.25-3.916,0.75-3.916,0.75s3.416,0.918,4.832,1.168c1.418,0.25,3.418,1.416,3.418,1.416l-2-0.084
				c0,0,0.416,1.5,1.25,2.084c0.832,0.584,2.166,1,2.166,1s-0.25,2.999-0.25,4.333s0,1.751,0.666,3.334
				c0.668,1.583,0.752,1.75,0.084,2.833c-0.666,1.083-2.75,3.083-2.75,3.083l-2.166,0.167c0,0-2.334,0.083-2.834,0.083s-2,0-2,0
				l1.416-1.583l1.584-0.917l1.334,0.334l-0.168,1l2.25-2.167l0.584-6.833l-1.916-2.751l-1.168,0.001l-6.332-5.751l-0.75-0.916
				l-1.334-1.834l-3.916-4.25l-1.916-4.166l-0.252-4.666l0.5-4.084l1.334-3.75l2.334-5.666l0.582-2.5l-0.582-1.668l-4.334-4.666
				l-3.332-1.166l-2.668-1.168l-2.582-1.832l-1.668-2.584l-1.916-3l-0.334-1.75l-1.416-0.834l-0.666,1.418l-0.418,2.75l-0.832,1.25
				l-1-2.084l-1,3.084l-1,1.666l-0.668-2.5l-0.916,0.916l-1.584,0.668l-0.75-0.834l-1.5-2.166l2.168,1.166l-0.25-2.916l-0.084-1.084
				l1.084,1.916l1.082-0.082l-0.25-1.918l-0.416-1.666l0.584-0.916l0.5,2.082l0.582,0.084l0.25-2.75l0.25-1.334l1.334,1.75
				l0.75-1.666l-0.834-1.084l-0.25-1.5l0.084-1.5l1.666,1.75l0.084,1.668l0.584,1.5l0.666-1.668l0.584-1.666l2.166-1
				L141.253,104.462z"/>
			<g>
				<g>
					<g>
						<g>
							<polygon points="149.001,120.796 151.419,123.962 152.835,126.63 152.751,129.046 151.669,130.796 151.419,132.63 
								150.669,127.462 149.751,125.462 149.001,123.212 147.335,121.796 							"/>
							<path d="M145.919,122.712l0.75,1.75c0,0,0,4.584,0,4.834s-0.918,0.584-0.668,2.334s0.25,2.832,0.25,2.832l-0.75,0.918
								l-0.666-4.834v-3.166l-1.5-2.834l1.5-0.334L145.919,122.712z"/>
							<path d="M141.169,126.38l1.166,2.416c0,0,0.084,6.166,0.084,6.916s1.166,2.334,1.166,2.334l1.416,1.334l-2.25,0.166
								l-0.832-0.916l-1.584-1.25l-0.25-5.084l-0.916-1.584l-0.834-1l-0.334-0.666L141.169,126.38z"/>
							<path d="M175.335,155.63c0,0-4.416-1.75-5.25-1.75s-2.834,0-2.834,0l-3.582,1.5l4.75,0.25c0,0,3.082,0.082,4,0.582
								c0.916,0.5,3.75,2,3.75,2L175.335,155.63z"/>
							<path d="M175.001,152.38l0.02-0.158l0.398-3.26c0,0-1.584-1.166-3-1.666c-1.418-0.5-4-1.084-4-1.084l-1.75-0.25
								c0,0-3.084,0.25-3.584,0.25s3.334,1,3.334,1l2.916,1.584c0,0,0.834,0.416,2.084,1.166S175.001,152.38,175.001,152.38z"/>
							<path d="M175.751,146.462c0,0-3.666-4.166-5.25-4.916c-1.582-0.75-3.332-1.416-3.332-1.416l-3-0.584l-2.75-0.584
								c0,0,1.082-1.082,3-1.25c1.916-0.166,5.082,0,5.082,0s1.584,0.668,2.418,1.168c0.832,0.5,4.666,4.416,4.666,4.416l-0.166,3
								L175.751,146.462z"/>
							<path d="M183.251,137.712c0,0,2.418,4.418,1.334,6.918c0,0,3-1.334,3.666-2.418c0,0-2.166-4.75-3.082-5.5L183.251,137.712z"
								/>
							<path d="M186.419,129.63l0.332,2.75l4.584,0.5l0.166-3.084C191.501,129.796,187.085,129.046,186.419,129.63z"/>
							<path d="M182.835,118.13l1.418,4.082c0,0,2.666-3.916,4-2.25l-1.168-3.332C187.085,116.63,183.253,116.296,182.835,118.13z"
								/>
							<path d="M183.419,105.88l1.666,3.332c0,0-4.582,0.918-5.082,2.5l-1.668-3.25C178.335,108.462,179.669,105.63,183.419,105.88z
								"/>
							<path d="M174.003,95.713c0,0,0.666,4.251,1.332,5.584c0,0,2.5-3.084,5.25-1.834l-0.666-2.416
								C179.919,97.047,177.503,94.297,174.003,95.713z"/>
							<path d="M174.419,84.88c0,0-0.584,3.167-0.584,4s0,0.167,0,0.167s4.002-1.333,5.418,0.5l0.166-1.917
								C179.419,87.63,178.419,84.88,174.419,84.88z"/>
							<path d="M176.751,79.88l3-2.917l3,5.834l-1.082,1.25C181.669,84.047,180.167,80.963,176.751,79.88z"/>
						</g>
						<g>
							<path d="M171.919,80.131c0,0-3.166,0.082-4.084-0.168c-0.916-0.25-3.916-1.833-4.832-2.5c-0.918-0.666-1.75-1.416-2.418-1.5
								c-0.666-0.082-3.832-0.416-3.832-0.416s2.166,0.584,3.5,1.584c1.332,1,1.5,1.582,2.832,2.916c1.334,1.334,1.5,2,3,2.5
								s2.834,0.5,2.834,0.5L171.919,80.131z"/>
							<path d="M175.169,73.381c0,0-1.334-0.334-2.5-0.084s-1.334,1-3.5,1s-2.918,0.333-4.25-0.334
								c-1.334-0.666-2.082-1.083-2.916-1.5c-0.834-0.416-3.5-2.25-3.5-2.25s1.916-0.166,2.832-0.082
								c0.918,0.082,1.416,0.75,2.334,1.5c0.916,0.75,1.5,1.332,2.416,1.416c0.918,0.084,1.834,0.333,2.834-0.584
								c1-0.916,2.084-2.249,2.666-2.332c0.584-0.084,3.918,0,3.918,0L175.169,73.381z"/>
							<path d="M159.251,64.63l2.25,0.417c0,0,0.584,0.25,2,0.25c1.418,0,4.334-0.334,4.334-0.334l-3,1.834
								c0,0-1.832,0.166-3.5,0.166c-1.666,0-3-0.333-3-0.333l0.75-1.083L159.251,64.63z"/>
							<path d="M157.335,58.38l1.834,2.333l2.082-0.166c0,0,3.252-2.333,3.584-2.75c0.334-0.417-1.916,0.666-2.666,0.666
								S157.335,58.38,157.335,58.38z"/>
							<path d="M172.751,50.38c0,0-0.998-0.833-2.916-0.833c-1.916,0-4,0-4.25,0s-1.75,0.833-1.75,0.833s1.75,0.083,3.916,0.25
								c2.168,0.167,2.918,0.5,2.918,0.5l2,0.917L172.751,50.38z"/>
						</g>
					</g>
					<g>
						<path d="M165.669,85.881c0,0-3.084,1-5.25-0.834s-2-2.584-2-2.584s-0.834-2-1.834-2.5s-2.832-1.25-2.832-1.25l-2.084,0.084
							c0,0,1.334,0.25,2.166,1.583c0.834,1.333,3,4.667,3,4.667s2.584,4.75,7.168,3.833l1.082-1.167l0.668-2L165.669,85.881z"/>
						<path d="M164.169,93.713c0,0-1.418-0.083-2.75-0.833c-1.334-0.75-2.832-2-3.166-2.417c-0.334-0.416-2.25-1.832-2.75-2.416
							s-1.334-1.25-1.668-1.25c-0.332,0-3.082,0.083-3.082,0.083s0.25,0.75,0.832,1.25c0.584,0.5,1.418,0.25,1.918,0.583
							c0.5,0.334,0.332,0.834,1.166,2c0.834,1.167,2.584,3.251,3.916,3.834c1.334,0.583,5.418,1.5,5.418,1.5L164.169,93.713z"/>
						<path d="M163.669,99.047c0,0-1.916-0.667-3.334-0.667c-1.416,0-3.082-0.333-4.5,0.417c-1.416,0.75-2.75,0.666-4.75,1.416
							s-4.082,0.834-5.5,0.834c0,0,2.25,1.583,7.5,1c0,0,2.75-0.583,4.334-1s5.75,0.166,6.166,0.666L163.669,99.047z"/>
						<path d="M163.919,103.38c0,0-1.668,0.334-3.75,0.75c-2.084,0.416-2.5,0.582-4.084,1.916s-1.75,1.5-2.916,1.584
							c-1.168,0.082-4.75,0.416-4.75,0.416h-2.418c0,0,2,1.334,3.5,1.916c1.5,0.584,3.5,0.502,5,0.418s1.418,0.416,2.918-1.084
							s1.834-1.916,2.916-2.334c1.084-0.416,2.918-0.832,3.75-0.666c0.834,0.166,2,0.584,2,0.584L163.919,103.38z"/>
						<path d="M166.919,110.712c0,0-1.168-0.998-3-0.332c-1.834,0.666-3.834,1.832-3.834,1.832l-2.834,2.584l-2.5,1.166l-2,0.334
							l2.834,0.916c0,0,2.084,0.418,3.25,0c1.166-0.416,2.666-2.166,2.666-2.166l3.584-2.084c0,0,0.584-0.332,1.584,0.168
							s1.75,0.832,1.75,0.832L166.919,110.712z"/>
						<path d="M170.085,117.88c0,0-2.418-1-3.834,0.082c-1.416,1.084-4.332,2.584-4.332,2.584s-1.416,1.25-1.834,1.25
							c-0.416,0-3,0.334-3,0.334l3.916,0.25l2.918-0.168l1.666-1l2.166-0.5l1.25-0.5l1.75,0.25L170.085,117.88z"/>
						<path d="M173.169,123.962l-2.668,0.5l-3.082,1.418l-2.168,0.666l-1.25,0.416l-1.916,0.25l-1.416,0.25l3.166,0.918l2.334-0.334
							l2.582-0.666l1.084-0.418c0,0,3.834-0.416,5-0.25l0.75,0.084L173.169,123.962z"/>
						<path d="M178.169,131.546l1.5,4.25c0,0-1.084,0.5-2.25-0.416c-1.168-0.918-1.502-1.666-3.418-2s-4.832-0.334-4.832-0.334
							h-2.084c0,0-2.334,0-2.584,0s-2.832,0.5-2.832,0.5l-1.584,0.5c0,0,2.334-1.75,4.334-2.084c2-0.332,4-0.75,4-0.75
							s1.416-0.082,1.832-0.332c0.418-0.25-0.584-0.75,1.75-0.668c2.334,0.084,3.084,0.75,3.584,1s1.416,0.418,1.416,0.418
							L178.169,131.546z"/>
						<polygon points="144.753,117.38 145.419,116.212 146.753,115.546 148.419,115.462 148.585,115.046 151.919,114.88 
							152.753,113.962 154.335,113.88 154.503,112.462 153.503,112.88 152.835,113.546 151.753,114.046 147.003,113.796 
							146.753,113.212 145.085,113.212 144.085,113.296 141.835,113.296 143.085,114.796 						"/>
						<polygon points="129.503,101.213 131.919,102.547 134.169,104.296 135.419,105.796 136.669,106.046 134.419,105.63 
							132.085,104.962 130.503,104.212 128.753,103.38 128.085,103.046 						"/>
						<path d="M131.253,97.797l1.582,1.333l2,0.917l2,0.416l1.75,0.25l-1.832-1.166c0,0-1.25-1.25-1.668-1.584
							c-0.416-0.333-0.832-0.833-0.832-0.833s-1.002-0.083-1.334-0.333c-0.334-0.25-1-0.667-1-0.667L131.253,97.797z"/>
						<path d="M126.253,105.546l-0.834,1.666l0.916,1.5l1,1.168l1.75,0.332h2.834c0,0-0.334-0.332-1-0.666s-1.416-1.084-1.416-1.084
							l-0.584-0.832c0,0-0.416,0.25-1.084,0.082c-0.666-0.166-1.166-0.832-1.166-0.832l-0.416-1.584V105.546z"/>
					</g>
				</g>
				<g>
					<path d="M134.253,72.213c0,0-5.168,1.834-6.834,3.334c0,0-1.416,1.25-1.334,4.584c0,0,3.834-4.5,7.418-4.584l0.5-0.084
						L134.253,72.213z"/>
					<path d="M133.335,78.881c0,0-3.75,1.082-4.75,2.332s-1.5,2.584-1.25,4.75c0,0,0.5-1.582,2.25-2.832s4.75-2.75,4.75-2.75
						L133.335,78.881z"/>
				</g>
			</g>
			<path fill="#FADE4E" d="M153.419,70.963c0,0,3.082-3.999,6.75,0.584c0,0-2.584-0.166-3.834,0.5c0,0,3.582,0.5,4.416,2.75
				c0,0-4.666-0.833-5.582-0.75c0,0,2.916,1.917,3.5,3.75l-3.084-0.667l1.75,2.917c0,0-3.75-2.5-4.916-2.5
				c0,0,1.748,3.083,0.582,4.583c0,0-1.332-2.416-2.666-2.333l1.416,3.25c0,0-2.834-1.666-3.75-1.75c0,0,1.418,2.5,0.918,3.583
				c0,0-1.918-3.917-5.418-2.417c0,0,3.334,0.834,3.168,3.834c0,0-2.168-5.084-6.5-2.084l-1.666,2.334l-0.834,0.166
				c0,0,0,1.917-1.25,3.5c-1.25,1.584-3.084,3.668-3.084,3.668l0.25-5.918l1.75-3.75l1.918-2.416c0,0,0.582-2.75,1.416-3.667
				c0.832-0.917,3.25-2.25,3.25-2.25l4.166-1.417l1.834-0.583l3.416,0.083l0.916-1.25L153.419,70.963z"/>
			<polyline fill="#FADE4E" points="143.585,157.212 139.835,157.212 137.419,157.13 137.003,156.38 134.753,154.796 
				135.169,157.546 133.585,155.88 132.919,155.63 132.835,154.046 131.669,153.88 131.919,155.046 133.085,156.212 133.003,159.63 
				131.669,157.13 131.669,156.046 129.919,155.88 129.085,154.546 129.253,157.796 127.669,157.462 126.503,156.296 
				124.335,156.13 126.253,157.962 124.753,158.546 123.585,157.712 121.503,156.712 119.669,156.712 120.585,158.462 
				119.919,159.63 118.753,160.046 117.585,161.296 117.753,161.712 118.419,161.63 119.503,160.38 120.335,160.38 121.085,160.88 
				122.669,160.88 124.835,158.88 129.335,161.462 130.253,160.546 130.419,158.88 131.335,160.046 131.753,161.046 
				132.419,162.546 133.919,163.13 135.753,162.712 134.503,161.88 134.503,160.296 135.669,160.546 136.669,160.546 
				137.503,161.712 138.169,158.962 138.835,158.462 140.503,158.38 142.753,158.296 143.585,157.38 			"/>
			<g>
				<path fill="#FFFFFF" d="M158.585,53.381c0,0-2,1.082-3.084,1.082l2.25,1.918h2.168l0.666-0.501l-1.916-0.917L158.585,53.381z"/>
				<path d="M159.501,51.797c0,0,2.168-0.167,3.584,0.333s1.416,1.25,2.334,1.75l0.832,0.083c0,0-0.666-0.083-2.25,0.75
					c-1.582,0.834-2.832,1.584-2.832,1.584s-0.334,0.416-1.334,0.416s-2.834,0-2.834,0l-1.25,0.167l-2.666-2.417h3.166
					c0,0-0.082,1,0.918,1.417s1.916,0.417,1.916,0.417l1.25-0.167l0.25-0.25c0,0-0.666,0.25-1.5-0.5s-1.084-1.417-1.084-1.417
					l0.5-1.083C158.501,52.88,159.001,51.714,159.501,51.797z"/>
				<path fill="#FFFFFF" d="M162.585,53.297l1.834,0.166l0.582,0.25c0,0-1.166,0.167-2.166,0.917l-0.666,0.417
					C162.169,55.047,162.753,53.631,162.585,53.297z"/>
				<path fill="#FFFFFF" d="M159.669,52.297c0,0,1.25-0.333,1.5,0.25s0.582,0.916,0.25,1.416c-0.334,0.5-0.168,0.917-1,0.75
					c-0.834-0.166-0.666,0.334-0.834-0.166C159.419,54.047,158.751,53.047,159.669,52.297z"/>
			</g>
			<path d="M170.001,56.547l1.75-0.167l2-2.25l1.5-0.583c0,0,1.668,0.084,2.084,0.5s0.5,0.75,0,1.416
				c-0.5,0.667-0.666,1.5-1.416,1.5l-0.668-0.083c0,0,0.084,1.501-1.416,1.417c0,0-0.5,1.417-1.834,1.25l-1-0.334
				c0,0-0.084-0.75-0.75-1.083L170.001,56.547z"/>
			<polygon fill="#6C9F49" stroke="#000000" stroke-width="0.75" points="129.835,62.797 130.085,65.047 129.919,68.297 
				130.169,69.463 132.251,69.38 132.251,67.38 133.085,66.88 133.085,63.213 133.585,61.797 133.585,60.047 130.251,60.213 			"/>
			<polygon fill="#FFFFFF" stroke="#000000" stroke-width="0.25" points="128.751,61.63 130.169,62.963 129.753,59.797 
				128.503,61.547 			"/>
			<path fill="#FFFFFF" stroke="#000000" stroke-width="0.25" d="M130.378,59.672l0.125,1.209c0,0,0.291,0.125,0.457,0.875
				c0.168,0.75,0.25,1.25,0.25,1.25l0.75-1.125l-0.041-1.293l0.041-1.082C131.96,59.506,131.294,58.672,130.378,59.672z"/>
			<path fill="#FFFFFF" stroke="#000000" stroke-width="0.25" d="M133.169,57.963l-0.834,1.75l-0.082,0.709l0.791-0.5l1.084-1.209
				C134.128,58.713,134.251,58.255,133.169,57.963z"/>
		</g>
		<path fill="#FFF200" stroke="#000000" stroke-width="0.8779" stroke-linecap="square" d="M101.38,39.547"/>
		<g>
			<path fill="#FFF200" stroke="#000000" stroke-width="0.8779" stroke-linecap="square" d="M112.325,10.23
				c0.99,2.182,1.555,4.598,1.555,7.149c0,9.573-7.76,17.333-17.332,17.333c-9.574,0-17.333-7.76-17.333-17.333
				c0-2.552,0.565-4.968,1.556-7.149c-2.231,3.152-3.556,6.993-3.556,11.149c0,10.677,8.655,19.333,19.333,19.333
				c10.678,0,19.332-8.656,19.332-19.333C115.88,17.224,114.556,13.383,112.325,10.23z"/>
			<polygon fill="#FFF200" stroke="#000000" stroke-width="0.8779" stroke-linecap="square" points="98.384,8.241 103.347,1.488 
				101.628,9.691 109.03,5.762 103.925,12.406 112.3,12.079 104.813,15.851 112.503,19.188 104.124,19.338 109.601,25.681 
				101.985,22.18 104.169,30.272 98.827,23.814 97.284,32.053 95.272,23.917 90.309,30.669 92.027,22.465 84.624,26.396 
				89.731,19.749 81.357,20.078 88.841,16.307 81.154,12.97 89.532,12.818 84.053,6.477 91.669,9.977 89.487,1.885 94.83,8.343 
				96.372,0.105 			"/>
			<g>
				<polygon fill="#EBD3A7" stroke="#000000" points="84.255,41.297 82.13,40.672 78.13,42.547 77.88,46.047 80.255,47.422 
					85.505,45.047 				"/>
				<polygon fill="#D68753" stroke="#000000" points="108.755,42.047 112.005,41.672 115.63,45.047 114.63,48.422 113.13,48.672 
					108.005,46.422 107.755,45.297 				"/>
				<path fill="#D68753" stroke="#000000" d="M89.505,41.047l-3.875-0.625l-2.5,2.25l0.625,3c0,0,4.25,1.75,6.125,0.125
					L89.505,41.047z"/>
				<path fill="#EBD3A7" stroke="#000000" d="M91.38,39.672l-2.5,1.75l-0.25,2.625l1.25,1.75l5.125-0.25c0,0,0.5-0.875,0.5-1.625
					s0.5-3.25,0.5-3.25s-1.375-1.75-4.25-1.125S91.38,39.672,91.38,39.672z"/>
				<path fill="#EBD3A7" stroke="#000000" d="M107.425,40.15l2.129,2.187l-0.246,2.626l-1.555,1.484l-4.988-1.204
					c0,0-0.328-0.953-0.188-1.689c0.141-0.737,0.117-3.286,0.117-3.286s1.678-1.462,4.385-0.311
					C109.788,41.109,107.425,40.15,107.425,40.15z"/>
				<path fill="#D68753" stroke="#000000" d="M103.255,41.047l-2.375-1.625h-2.875l-2.375,0.875l-0.125,4.5c0,0,4,2.375,7,0
					L103.255,41.047z"/>
			</g>
		</g>
		<g>
			<polygon fill="#E98560" stroke="#000000" stroke-width="0.75" points="82.255,108.796 80.255,111.046 77.63,111.171 
				76.005,112.171 77.755,113.046 76.38,113.296 75.005,112.796 73.255,112.046 72.63,111.546 72.88,114.296 75.255,116.421 
				76.63,116.296 75.38,117.046 76.38,118.296 78.63,117.421 79.13,116.296 80.005,116.796 81.755,116.171 83.13,114.546 
				83.005,112.171 83.88,111.546 84.63,109.546 			"/>
			<g>
				<path fill="#ED1C24" stroke="#000000" stroke-width="0.75" d="M82.755,104.296l-1.125,2.75c0,0-0.875,0.625-0.375,1.625
					s1.25,1.625,1.25,1.625l1.75,0.125h1.625l1.875-0.75l0.25-3.5l-2-2L82.755,104.296z"/>
				<path fill="#E98560" stroke="#000000" stroke-width="0.75" d="M83.88,102.047l-2.625,1.5l0.25,2.25c0,0,1.75-1.125,1.75,0.125
					l1.375-0.75l-0.375,2.75l1.625-0.75v2.25l2.125-1.5c0,0,1.625-0.875,0.25-4.5l-2.75-2.375L83.88,102.047z"/>
				<g>
					<path fill="#FFFFFF" stroke="#000000" stroke-width="0.75" d="M81.005,98.297l1.25-1.625c0,0-0.5-1.375,0.75-1.375
						c0,0,0.5-1.625,1.5-2s15.875-28.875,15.875-28.875s0-2.125,1.125-2.25c0,0-1-1,0.375-1.375c0,0-0.125-1.375,1-1.625l0.25-1.625
						l1.125-0.625l1.375-1.75l-0.125,2.125l-0.125,1.125c0,0-1-0.125-1,0.5s0,1.75,0,1.75l-0.25,1.5l-0.25,1.25l-0.125,1.25
						L93.63,91.422l0.25,4.5l-1.125,3.125l-0.875,1.25c0,0-0.375,1.25-0.25,2.75c0.125,1.5,0.625,2,0.625,2l1.125,0.75l-0.25,0.5
						h-1.625l-3.125-1.75c0,0-1.75-1.875-3-1.625s-1.5-0.875-1.5-0.875l-1.875-0.25l-1-0.875l-1.625,0.375c0,0,0-0.5-1-0.5
						s-4.125-0.125-2.875-3.125c0,0,0.5-0.875,1-0.125s0.5,1.625,0.5,1.625h1.5l0.25-1.5c0,0,0.25-0.375,1.125,0
						S80.13,98.672,81.005,98.297z"/>
					<path fill="none" stroke="#000000" stroke-width="0.75" d="M84.755,96.422l0.625,1.375c0,0,1.25-0.5,1.25,0.5s1,0.625,1,0.625
						l0.875,0.375c0,0-1.5-1.125-0.625-2.875"/>
					<path fill="none" stroke="#000000" stroke-width="0.75" d="M82.38,100.172c0,0,1.375-0.25,1.375,0.375s1.25,0,1.25,0l0.375,1
						l1.125-0.125l1.375,1h0.75l1.125,0.125v0.75"/>
				</g>
			</g>
		</g>
		<g>
			<polygon fill="#E98560" stroke="#000000" stroke-width="0.75" points="109.88,108.796 111.88,111.046 114.505,111.171 
				116.13,112.171 114.38,113.046 115.755,113.296 117.13,112.796 118.88,112.046 119.505,111.546 119.255,114.296 116.88,116.421 
				115.505,116.296 116.755,117.046 115.755,118.296 113.505,117.421 113.005,116.296 112.13,116.796 110.38,116.171 
				109.005,114.546 109.13,112.171 108.255,111.546 107.505,109.546 			"/>
			<g>
				<path fill="#ED1C24" stroke="#000000" stroke-width="0.75" d="M109.38,104.296l1.125,2.75c0,0,0.875,0.625,0.375,1.625
					s-1.25,1.625-1.25,1.625l-1.75,0.125h-1.625l-1.875-0.75l-0.25-3.5l2-2L109.38,104.296z"/>
				<path fill="#E98560" stroke="#000000" stroke-width="0.75" d="M108.255,102.047l2.625,1.5l-0.25,2.25c0,0-1.75-1.125-1.75,0.125
					l-1.375-0.75l0.375,2.75l-1.625-0.75v2.25l-2.125-1.5c0,0-1.625-0.875-0.25-4.5l2.75-2.375L108.255,102.047z"/>
				<g>
					<path fill="#FFFFFF" stroke="#000000" stroke-width="0.75" d="M111.13,98.297l-1.25-1.625c0,0,0.5-1.375-0.75-1.375
						c0,0-0.5-1.625-1.5-2S91.755,64.422,91.755,64.422s0-2.125-1.125-2.25c0,0,1-1-0.375-1.375c0,0,0.125-1.375-1-1.625
						l-0.25-1.625l-1.125-0.625l-1.375-1.75l0.125,2.125l0.125,1.125c0,0,1-0.125,1,0.5s0,1.75,0,1.75l0.25,1.5l0.25,1.25
						l0.125,1.25l10.125,26.75l-0.25,4.5l1.125,3.125l0.875,1.25c0,0,0.375,1.25,0.25,2.75c-0.125,1.5-0.625,2-0.625,2l-1.125,0.75
						l0.25,0.5h1.625l3.125-1.75c0,0,1.75-1.875,3-1.625s1.5-0.875,1.5-0.875l1.875-0.25l1-0.875l1.625,0.375c0,0,0-0.5,1-0.5
						s4.125-0.125,2.875-3.125c0,0-0.5-0.875-1-0.125s-0.5,1.625-0.5,1.625h-1.5l-0.25-1.5c0,0-0.25-0.375-1.125,0
						S112.005,98.672,111.13,98.297z"/>
					<path fill="none" stroke="#000000" stroke-width="0.75" d="M107.38,96.422l-0.625,1.375c0,0-1.25-0.5-1.25,0.5
						s-1,0.625-1,0.625l-0.875,0.375c0,0,1.5-1.125,0.625-2.875"/>
					<path fill="none" stroke="#000000" stroke-width="0.75" d="M109.755,100.172c0,0-1.375-0.25-1.375,0.375s-1.25,0-1.25,0
						l-0.375,1l-1.125-0.125l-1.375,1h-0.75l-1.125,0.125v0.75"/>
				</g>
			</g>
		</g>
		<ellipse fill="#FFFFFF" stroke="#000000" stroke-width="0.75" cx="96.005" cy="94.422" rx="5.625" ry="4.875"/>
		<ellipse fill="#ED1C24" stroke="#000000" stroke-width="0.75" cx="95.943" cy="94.547" rx="3.687" ry="3.25"/>
		<g>
			<rect x="76.13" y="66.797" fill="#FFFFFF" stroke="#000000" stroke-width="0.75" width="40" height="27.375"/>
			<rect x="77.505" y="66.672" fill="#D28046" stroke="#000000" stroke-width="0.5" width="37.375" height="26.25"/>
			<g>
				<g>
					<g>
						<path fill="#FFFFFF" d="M95.818,66.609c0,0-1.75-3.75-6.25-2.875c0,0-0.875,0.25-2.25,1.375s-3.75,1.625-6.5,1v25.125
							c0,0,0.625,2.5,4.25,0.375c0,0,4.875-4.625,9.375-1.375l1.625,1.625v-24.25L95.818,66.609z"/>
						<path fill="#FFFFFF" d="M96.317,66.609c0,0,1.75-3.75,6.25-2.875c0,0,0.875,0.25,2.25,1.375s3.75,1.625,6.5,1v25.125
							c0,0-0.625,2.5-4.25,0.375c0,0-4.875-4.625-9.375-1.375l-1.625,1.625v-24.25L96.317,66.609z"/>
					</g>
					<g>
						<path fill="#E7B05E" d="M86.38,89.172V66.047c0,0-2,0.75-3,0.75v25.5l3.125-1.625L86.38,89.172z"/>
						<path fill="#E7B05E" d="M92.38,64.297v24.875c0,0,3,1.125,3.625,2.625V66.922C96.005,66.922,94.505,64.797,92.38,64.297z"/>
						<rect x="89.88" y="63.922" fill="#E7B05E" width="1" height="25.125"/>
						<polygon fill="#E7B05E" points="103.255,64.297 103.255,89.297 106.505,91.422 106.505,66.547 						"/>
					</g>
				</g>
				<g>
					<path fill="none" stroke="#000000" stroke-width="0.75" d="M95.88,66.922c0,0-1.75-3.75-6.25-2.875c0,0-0.875,0.25-2.25,1.375
						s-3.75,1.625-6.5,1v25.125c0,0,0.625,2.5,4.25,0.375c0,0,4.875-4.625,9.375-1.375l1.625,1.625v-24.25L95.88,66.922z"/>
					<path fill="none" stroke="#000000" stroke-width="0.75" d="M96.38,66.922c0,0,1.75-3.75,6.25-2.875c0,0,0.875,0.25,2.25,1.375
						s3.75,1.625,6.5,1v25.125c0,0-0.625,2.5-4.25,0.375c0,0-4.875-4.625-9.375-1.375l-1.625,1.625v-24.25L96.38,66.922z"/>
				</g>
			</g>
		</g>
		<g>
			<path fill="#FFF200" stroke="#000000" d="M50.38,181.796l-3.5,1.5v8.375H30.505c0,0-1.625-3.625-1.625-4.875
				s-11.375-3.25-11.375-3.25s-4.375-0.75-6.625,1.375s-2,2-2,3.75s4.375,13.125,4.375,13.125s0,1.125,4,1.25s40.25,0,40.25,0
				s3.625,0.375,4.5-2.375l-0.125-7.125h67.125l0.375,6.375c0,0-0.375,3,3.375,3.125h42.25c0,0,2.25-0.75,3-1.875
				s2.375-7.75,2.375-7.75l1.375-4.375c0,0-0.5-4.5-3.375-5s-13.25-0.5-13.25-0.5s-3,2-3.625,3.25s-1,4.75-1,4.75H143.88
				l0.125-7.375c0,0-0.25-2.375-3.375-2.5h-89.5L50.38,181.796z"/>
			<g>
				<path fill="#E27D3A" d="M15.964,188.296c0,0-1.001-0.833-2.584-0.083s-2.083,1.333-2.083,1.333l0.583,4.167l0.584,0.583
					l0.083,2.083l0.75,1.667c0,0,0.084-0.917,1.667-1.75s3.166-1.333,3.166-1.333s-2.25-0.25-4.333,1c0,0,0.499-1.083,1.583-1.5
					l1.167-0.334c0,0-1.001-1.416-2.417-0.833c0,0,0.084-1.333,2.084-1.25l1.833,0.25c0,0,0.249-1.083-1.167-1.333
					c0,0,0.5-1.001,2-0.334c0,0,0-1.416-4-0.916L15.964,188.296z"/>
				<path fill="#E27D3A" d="M47.214,192.213v3.666c0,0-3.584-1.583-3.667-3.583L47.214,192.213z"/>
				<path fill="#E27D3A" d="M58.964,200.046c0,0,1.5,0.751,1,1.167s-6.084,0.583-6.084,0.583s-2.417-0.583-3-1.25
					s-1.75-1.75-1.75-1.75v-0.583l-1.25-0.417l-0.166-1.083l1.416,0.166l0.5,0.75l2.334-0.083l0.083,0.5h1.917l1.166,0.583v0.75h3
					l0.25,0.584L58.964,200.046z"/>
				<g>
					<path fill="#39423F" d="M21.63,198.296c0,0-2.5-0.5-3.75-0.5s-2.625,0.5-3.125,1.625s-1.375,1.5-0.125,2.375s7.875,1,7.875,1
						s-2.5-0.125-3.375-0.875S18.38,198.796,21.63,198.296z"/>
					<path fill="#39423F" d="M23.005,198.046h6.125c0,0,3.625-0.5,1.25-6c0,0,1.5,0.5,1.875,1.625c0,0,2.125,3.125-0.375,4.875
						c0,0-0.375,0.5-3,0.375h-3.625L23.005,198.046z"/>
					<path fill="#39423F" d="M61.755,193.921l-10.625-0.125l-1.75,1.25c0,0,9.75,4,11.5,5.375c0,0,0.375,1.75-1.75,2.25l1.5,0.125
						l1.375-2.125L61.755,193.921z"/>
				</g>
			</g>
			<path fill="#E27D3A" d="M175.214,188.296c0,0,1.002-0.833,2.584-0.083c1.584,0.75,2.084,1.333,2.084,1.333l-0.584,4.167
				l-0.584,0.583l-0.082,2.083l-0.75,1.667c0,0-0.084-0.917-1.668-1.75c-1.582-0.833-3.166-1.333-3.166-1.333s2.25-0.25,4.334,1
				c0,0-0.5-1.083-1.584-1.5l-1.166-0.334c0,0,1-1.416,2.416-0.833c0,0-0.084-1.333-2.084-1.25l-1.832,0.25
				c0,0-0.25-1.083,1.166-1.333c0,0-0.5-1.001-2-0.334c0,0,0-1.416,4-0.916L175.214,188.296z"/>
			<path fill="#E27D3A" d="M144.214,192.338v3.666c0,0,3.584-1.583,3.668-3.583L144.214,192.338z"/>
			<path fill="#E27D3A" d="M132.464,200.171c0,0-1.5,0.751-1,1.167s6.084,0.583,6.084,0.583s2.418-0.583,3-1.25
				c0.584-0.667,1.75-1.75,1.75-1.75v-0.583l1.25-0.417l0.166-1.083l-1.416,0.166l-0.5,0.75l-2.334-0.083l-0.082,0.5h-1.918
				l-1.166,0.583v0.75h-3l-0.25,0.584L132.464,200.171z"/>
			<path fill="#39423F" d="M169.548,197.671c0,0,2.5-0.5,3.75-0.5s2.625,0.5,3.125,1.625s1.375,1.5,0.125,2.375s-7.875,1-7.875,1
				s2.5-0.125,3.375-0.875S172.798,198.171,169.548,197.671z"/>
			<path fill="#39423F" d="M168.173,197.671h-6.125c0,0-3.625-0.5-1.25-6c0,0-1.5,0.5-1.875,1.625c0,0-2.125,3.125,0.375,4.875
				c0,0,0.375,0.5,3,0.375h3.625L168.173,197.671z"/>
			<path fill="#39423F" d="M129.423,193.921l10.625-0.125l1.75,1.25c0,0-9.75,4-11.5,5.375c0,0-0.375,1.75,1.75,2.25l-1.5,0.125
				l-1.375-2.125L129.423,193.921z"/>
		</g>
		<g>
			<path d="M56.48,186.617l1.714,2.76c0.243,0.393,0.454,0.659,0.63,0.8c0.129,0.1,0.264,0.149,0.406,0.149v0.156h-2.549v-0.156
				c0.161-0.019,0.266-0.052,0.313-0.099s0.071-0.104,0.071-0.173c0-0.132-0.111-0.379-0.333-0.741l-1.12-1.804l-0.185,0.191v1.719
				c0,0.328,0.015,0.533,0.044,0.613c0.029,0.081,0.085,0.15,0.168,0.207c0.082,0.058,0.215,0.086,0.397,0.086v0.156h-2.484v-0.156
				h0.162c0.142,0,0.256-0.032,0.342-0.098c0.063-0.043,0.11-0.117,0.145-0.223c0.025-0.074,0.039-0.27,0.039-0.586v-4.141
				c0-0.322-0.014-0.523-0.039-0.604c-0.027-0.08-0.08-0.15-0.16-0.211c-0.081-0.061-0.189-0.091-0.326-0.091h-0.162v-0.156h2.453
				v0.156c-0.168,0-0.297,0.031-0.385,0.093c-0.063,0.044-0.113,0.116-0.149,0.219c-0.029,0.077-0.044,0.275-0.044,0.595v1.959
				l1.822-1.875c0.254-0.268,0.381-0.48,0.381-0.642c0-0.119-0.053-0.214-0.156-0.282c-0.053-0.035-0.186-0.057-0.396-0.066v-0.156
				h1.91v0.156c-0.171,0.016-0.306,0.056-0.403,0.12c-0.099,0.064-0.324,0.282-0.676,0.652L56.48,186.617z"/>
			<path d="M63.722,188.701h-1.714l-0.215,0.609c-0.068,0.205-0.102,0.376-0.102,0.51c0,0.178,0.056,0.31,0.167,0.394
				c0.064,0.05,0.226,0.087,0.481,0.112v0.156h-1.634v-0.156c0.176-0.034,0.321-0.128,0.435-0.282s0.254-0.473,0.421-0.955
				l1.758-4.981h0.068l1.76,5.12c0.169,0.492,0.308,0.803,0.417,0.931c0.082,0.096,0.197,0.152,0.348,0.168v0.156h-2.372v-0.156
				h0.099c0.19,0,0.324-0.034,0.401-0.104c0.054-0.05,0.08-0.121,0.08-0.216c0-0.056-0.007-0.114-0.021-0.173
				c-0.005-0.028-0.041-0.146-0.108-0.353L63.722,188.701z M63.604,188.357l-0.728-2.116l-0.747,2.116H63.604z"/>
			<path d="M71.027,188.32l1.317-4.104h1.987v0.156h-0.158c-0.144,0-0.259,0.033-0.346,0.099c-0.06,0.044-0.107,0.117-0.144,0.221
				c-0.026,0.075-0.04,0.271-0.04,0.587v4.141c0,0.322,0.014,0.523,0.04,0.604c0.026,0.08,0.08,0.151,0.162,0.211
				c0.081,0.061,0.19,0.091,0.327,0.091h0.158v0.156h-2.563v-0.156h0.159c0.144,0,0.259-0.032,0.345-0.098
				c0.061-0.043,0.108-0.117,0.145-0.223c0.026-0.074,0.039-0.27,0.039-0.586v-4.631l-1.854,5.693h-0.087l-1.913-5.635v4.4
				c0,0.305,0.006,0.492,0.019,0.563c0.031,0.152,0.1,0.275,0.205,0.372c0.105,0.096,0.271,0.144,0.495,0.144v0.156h-1.688v-0.156
				h0.051c0.108,0.003,0.21-0.02,0.304-0.068c0.095-0.048,0.165-0.112,0.214-0.193c0.048-0.08,0.086-0.194,0.112-0.34
				c0.005-0.035,0.007-0.193,0.007-0.477v-3.969c0-0.322-0.013-0.523-0.039-0.604c-0.027-0.08-0.081-0.15-0.163-0.211
				c-0.082-0.062-0.192-0.092-0.329-0.092h-0.156v-0.156h2.006L71.027,188.32z"/>
			<path d="M78.709,190.326v0.156h-2.563v-0.156h0.162c0.142,0,0.256-0.032,0.342-0.098c0.063-0.043,0.11-0.117,0.145-0.223
				c0.026-0.074,0.039-0.27,0.039-0.586v-4.141c0-0.322-0.013-0.523-0.039-0.604c-0.026-0.08-0.08-0.15-0.16-0.211
				c-0.081-0.061-0.189-0.091-0.326-0.091h-0.162v-0.156h2.563v0.156h-0.161c-0.141,0-0.254,0.033-0.34,0.098
				c-0.063,0.043-0.111,0.117-0.147,0.223c-0.026,0.074-0.039,0.27-0.039,0.586v4.141c0,0.322,0.014,0.523,0.041,0.604
				c0.027,0.08,0.081,0.151,0.161,0.211c0.08,0.061,0.188,0.091,0.324,0.091H78.709z"/>
			<path d="M87.243,188.32l1.317-4.104h1.987v0.156h-0.158c-0.144,0-0.259,0.033-0.346,0.099c-0.06,0.044-0.107,0.117-0.144,0.221
				c-0.026,0.075-0.04,0.271-0.04,0.587v4.141c0,0.322,0.014,0.523,0.04,0.604c0.026,0.08,0.08,0.151,0.162,0.211
				c0.081,0.061,0.19,0.091,0.327,0.091h0.158v0.156h-2.563v-0.156h0.159c0.144,0,0.259-0.032,0.345-0.098
				c0.061-0.043,0.108-0.117,0.145-0.223c0.026-0.074,0.039-0.27,0.039-0.586v-4.631l-1.854,5.693h-0.087l-1.913-5.635v4.4
				c0,0.305,0.006,0.492,0.019,0.563c0.031,0.152,0.1,0.275,0.205,0.372c0.105,0.096,0.271,0.144,0.495,0.144v0.156H83.85v-0.156
				h0.051c0.108,0.003,0.21-0.02,0.304-0.068c0.095-0.048,0.165-0.112,0.214-0.193c0.048-0.08,0.086-0.194,0.112-0.34
				c0.005-0.035,0.007-0.193,0.007-0.477v-3.969c0-0.322-0.013-0.523-0.039-0.604c-0.027-0.08-0.081-0.15-0.163-0.211
				c-0.082-0.062-0.192-0.092-0.329-0.092H83.85v-0.156h2.006L87.243,188.32z"/>
			<path d="M94.238,184.576v2.547h0.099c0.313,0,0.539-0.124,0.68-0.372c0.141-0.247,0.229-0.613,0.269-1.097h0.125v3.266h-0.125
				c-0.029-0.356-0.09-0.648-0.184-0.877c-0.093-0.227-0.202-0.38-0.325-0.459c-0.124-0.078-0.303-0.117-0.538-0.117v1.771
				c0,0.347,0.012,0.559,0.034,0.636c0.023,0.077,0.066,0.142,0.129,0.19c0.063,0.05,0.164,0.074,0.304,0.074h0.294
				c0.458,0,0.825-0.136,1.102-0.406c0.275-0.271,0.475-0.684,0.596-1.236h0.135l-0.221,1.986h-4.248v-0.156h0.162
				c0.142,0,0.256-0.032,0.342-0.098c0.063-0.043,0.11-0.117,0.145-0.223c0.026-0.074,0.039-0.27,0.039-0.586v-4.141
				c0-0.285-0.006-0.46-0.018-0.525c-0.024-0.108-0.068-0.191-0.134-0.251c-0.091-0.087-0.216-0.13-0.374-0.13h-0.162v-0.156h4.109
				v1.828h-0.125c-0.07-0.445-0.17-0.766-0.297-0.959c-0.129-0.194-0.31-0.337-0.543-0.428c-0.137-0.055-0.393-0.082-0.769-0.082
				H94.238z"/>
			<path d="M102.181,188.32l1.316-4.104h1.988v0.156h-0.158c-0.145,0-0.26,0.033-0.346,0.099c-0.061,0.044-0.109,0.117-0.145,0.221
				c-0.027,0.075-0.039,0.271-0.039,0.587v4.141c0,0.322,0.012,0.523,0.039,0.604c0.025,0.08,0.08,0.151,0.162,0.211
				c0.082,0.061,0.191,0.091,0.328,0.091h0.158v0.156h-2.563v-0.156h0.158c0.143,0,0.258-0.032,0.346-0.098
				c0.059-0.043,0.107-0.117,0.143-0.223c0.027-0.074,0.041-0.27,0.041-0.586v-4.631l-1.854,5.693h-0.088l-1.912-5.635v4.4
				c0,0.305,0.006,0.492,0.018,0.563c0.031,0.152,0.1,0.275,0.205,0.372c0.105,0.096,0.27,0.144,0.496,0.144v0.156h-1.688v-0.156
				h0.051c0.107,0.003,0.209-0.02,0.303-0.068c0.094-0.048,0.166-0.112,0.213-0.193c0.049-0.08,0.086-0.194,0.113-0.34
				c0.004-0.035,0.008-0.193,0.008-0.477v-3.969c0-0.322-0.014-0.523-0.041-0.604c-0.025-0.08-0.08-0.15-0.162-0.211
				c-0.082-0.062-0.191-0.092-0.33-0.092h-0.154v-0.156h2.004L102.181,188.32z"/>
			<path d="M109.862,190.326v0.156H107.3v-0.156h0.162c0.141,0,0.256-0.032,0.342-0.098c0.063-0.043,0.111-0.117,0.145-0.223
				c0.025-0.074,0.039-0.27,0.039-0.586v-4.141c0-0.322-0.014-0.523-0.039-0.604c-0.027-0.08-0.08-0.15-0.16-0.211
				s-0.189-0.091-0.326-0.091H107.3v-0.156h2.563v0.156h-0.16c-0.143,0-0.256,0.033-0.342,0.098
				c-0.061,0.043-0.111,0.117-0.146,0.223c-0.025,0.074-0.039,0.27-0.039,0.586v4.141c0,0.322,0.014,0.523,0.041,0.604
				c0.027,0.08,0.082,0.151,0.162,0.211c0.08,0.061,0.188,0.091,0.324,0.091H109.862z"/>
			<path d="M115.054,188.32l1.316-4.104h1.988v0.156H118.2c-0.145,0-0.26,0.033-0.346,0.099c-0.061,0.044-0.109,0.117-0.145,0.221
				c-0.025,0.075-0.039,0.271-0.039,0.587v4.141c0,0.322,0.014,0.523,0.039,0.604c0.027,0.08,0.08,0.151,0.162,0.211
				c0.082,0.061,0.191,0.091,0.328,0.091h0.158v0.156h-2.563v-0.156h0.158c0.145,0,0.26-0.032,0.346-0.098
				c0.061-0.043,0.107-0.117,0.145-0.223c0.025-0.074,0.039-0.27,0.039-0.586v-4.631l-1.854,5.693h-0.088l-1.912-5.635v4.4
				c0,0.305,0.006,0.492,0.018,0.563c0.031,0.152,0.1,0.275,0.205,0.372c0.105,0.096,0.271,0.144,0.496,0.144v0.156h-1.688v-0.156
				h0.051c0.107,0.003,0.209-0.02,0.303-0.068c0.094-0.048,0.166-0.112,0.215-0.193c0.047-0.08,0.084-0.194,0.111-0.34
				c0.006-0.035,0.008-0.193,0.008-0.477v-3.969c0-0.322-0.014-0.523-0.041-0.604c-0.025-0.08-0.08-0.15-0.162-0.211
				c-0.082-0.062-0.191-0.092-0.33-0.092h-0.154v-0.156h2.004L115.054,188.32z"/>
			<path d="M122.017,187.623v1.766c0,0.342,0.016,0.558,0.049,0.646c0.033,0.088,0.092,0.159,0.176,0.212s0.238,0.079,0.463,0.079
				v0.156h-2.516v-0.156c0.229,0,0.385-0.027,0.467-0.082c0.082-0.054,0.139-0.125,0.172-0.212s0.049-0.302,0.049-0.644v-4.078
				c0-0.342-0.016-0.557-0.049-0.646s-0.092-0.159-0.174-0.213c-0.084-0.053-0.238-0.079-0.465-0.079v-0.156h2.15
				c0.707,0,1.217,0.159,1.523,0.478c0.309,0.318,0.463,0.716,0.463,1.193c0,0.404-0.1,0.75-0.297,1.038
				c-0.199,0.287-0.473,0.483-0.82,0.587C122.972,187.585,122.575,187.623,122.017,187.623z M122.017,184.56v2.719
				c0.08,0.006,0.141,0.01,0.182,0.01c0.295,0,0.523-0.112,0.684-0.337c0.16-0.224,0.24-0.571,0.24-1.042
				c0-0.467-0.08-0.809-0.24-1.025c-0.16-0.216-0.398-0.324-0.717-0.324H122.017z"/>
			<path d="M128.759,190.326v0.156h-2.563v-0.156h0.162c0.141,0,0.256-0.032,0.342-0.098c0.063-0.043,0.109-0.117,0.145-0.223
				c0.025-0.074,0.039-0.27,0.039-0.586v-4.141c0-0.322-0.014-0.523-0.039-0.604c-0.027-0.08-0.08-0.15-0.16-0.211
				c-0.082-0.061-0.189-0.091-0.326-0.091h-0.162v-0.156h2.563v0.156h-0.162c-0.141,0-0.254,0.033-0.34,0.098
				c-0.063,0.043-0.111,0.117-0.146,0.223c-0.025,0.074-0.039,0.27-0.039,0.586v4.141c0,0.322,0.014,0.523,0.041,0.604
				c0.027,0.08,0.08,0.151,0.16,0.211c0.08,0.061,0.189,0.091,0.324,0.091H128.759z"/>
			<path d="M132.269,184.216l2.418,3.879v-2.691c0-0.379-0.041-0.637-0.121-0.77c-0.113-0.181-0.301-0.268-0.566-0.262v-0.156h1.594
				v0.156c-0.205,0.034-0.344,0.078-0.414,0.133c-0.072,0.055-0.127,0.144-0.166,0.266c-0.039,0.123-0.061,0.334-0.061,0.633v5.219
				h-0.121l-3.316-5.235v4.032c0,0.355,0.066,0.595,0.197,0.72c0.131,0.124,0.281,0.187,0.451,0.187h0.117v0.156h-1.75v-0.156
				c0.27-0.003,0.455-0.072,0.561-0.209s0.158-0.369,0.158-0.697v-4.451l-0.104-0.165c-0.104-0.173-0.195-0.286-0.275-0.34
				s-0.195-0.085-0.344-0.091v-0.156H132.269z"/>
		</g>
		<path fill="#FFFFFF" d="M82.943,146.234l-1.625,1.125l-1.438,2.875l0.813,1.063c0,0,0.125,0.938,0.75,1.875s1.75,1.5,1.75,1.5
			l0.75,0.125l0.125,1.375l2.75,3.188l2.375-0.5c0,0,0.188,1,0.563,1.313s2.563,0.563,2.563,0.563s2.438,0.25,3.188-0.625
			c0.75-0.875,0.937-1.625,0.937-1.625s0.563,2.313,5.75,1.875l2-1.375c0,0,0.25,1.063,1.688,0.438s3.313-1.688,3.313-1.688
			l0.563-2.188l2.25-0.25l1.438-4.125l-0.625-3.063l-1.375-0.875l3.25-1.313l0.313-4.875l-0.5-0.5l0.313-0.625l0.25-3.938l-2.063-1
			l0.688-2.25l-2.188-3.75l-3.875,0.125l-0.75-2.188l-1.813-2.875l-4.188,0.25l-1.625-1.375l-5-0.313l-1.375,1.25l-2.563-0.438
			c0,0-2.563,0.938-2.938,1.938s-0.438,1.938-0.438,2.438v0.313l-2.75-0.375c0,0-1.813,0.063-2.813,0.5s-1.688,1.25-2.125,2.625
			s-0.438,2.875-0.438,2.875l-0.063,1.25l0.125,1.375l0.125,0.313l-1.625,1.688c0,0-0.313,0.75-0.438,1.438s-0.313,1.5-0.063,2.75
			s0.688,1.563,1.25,2.188s1.438,1.188,1.438,1.188l2.25,0.938L82.943,146.234z"/>
		<g>
			<g>
				<path fill="#ED1C24" stroke="#000000" stroke-width="0.75" d="M93.005,124.671l-2.625-0.625c0,0-2.25,0.875-2.625,1.875
					s-0.25,3.25-0.25,3.25s-1.625-0.625-2.5-0.625s-3.25-0.875-4.5,1.25s-1.125,4.125-1.125,4.125v1.75l0.5,0.875l-2,2.125
					c0,0-1.125,2.875,0.125,4.75s3.75,2.75,3.75,2.75l3.375-1.25l-3.25,2.875l-1.125,2.375l0.625,0.875c0,0,0.5,3.25,3,3.25
					l0.125,1.375l2.75,3l2.25-0.5c0,0,0.125,1.625,1.375,1.75s2.875,1,4.625-0.75l0.875-2.125c0,0,0.75,2.25,2.875,2.625
					s3.25,0,3.25,0l1.875-1.75c0,0,0,1.625,1.5,0.875s2.75-1.375,2.75-1.375l0.5-2.5l2.5-0.25l1.125-3.625l-0.75-2.875l-2.375-1.125
					l4.5-1.5v-4.375l-0.625-0.75l0.5-0.625l0.375-3.625l-2-1l0.625-2.375l-1.875-3.125h-4.125l-0.625-2.375l-1.625-2.5l-4.375,0.125
					l-1.625-1.375l-4.375-0.375L93.005,124.671z"/>
				<g>
					<polygon points="105.755,131.171 103.38,133.421 106.005,129.796 					"/>
					<g>
						<path d="M96.505,142.671l-2.875,2.125l-2.875-0.125l0.625,1.125l-2.875,2.75l3.625-2l0.125,1.5l1.5-1.875l2.875-2.625
							l-0.5,2.875c0,0-0.125,7.125-0.125,8.75l0.25,1.125c0,0,0.125-7.75,0.875-11.25l1.125,3.125l0.875-2.25l1.5,1.875l1.75,1.5
							l-1.25-2.125h1.5l-1.25-1.25l0.5-0.125l-2-1.375l-1-1.25l1.25-0.75l-1.125-1l1.125-1.125l0.25-0.875l1.875-1.625l-2.75,0.875
							l0.5-1.625l-1.25,2.5v-2.75l-0.5,3.375l-0.75-1l-0.125,1.375l-0.5-1.625l-0.75-0.5l-1.75-2.875l-1.374-1.373l-1.251-1.252
							l-3.75-2.375c0,0,4.25,3.5,5,4.375s-0.625,0.5-0.625,0.5l1.625,2.25l1,1.875l-1.375-0.625l-1.5-2h-1.5l1,1.75l0.625,0.75h-2
							l-1.375,0.75l3.125,0.5l1.125,0.125l-0.75,1.125l2.75,0.375L96.505,142.671z"/>
						<polygon points="105.38,141.046 103.38,140.421 104.13,138.296 102.255,139.171 100.755,139.921 102.38,140.796 
							102.13,141.671 						"/>
						<path d="M105.13,139.421l-0.125-1.125c0,0,2.875-0.125,4,0.625l-2.125,0.25L105.13,139.421z"/>
						<polygon points="101.13,136.171 102.255,135.296 102.88,135.046 102.88,134.046 104.755,131.171 102.13,133.796 
							101.255,133.671 101.255,134.671 100.63,135.296 						"/>
						<polygon points="97.13,137.421 97.13,135.921 98.005,135.046 96.88,134.296 95.755,131.421 96.005,134.546 95.505,135.046 
							96.005,135.671 						"/>
						<path d="M108.63,146.171c0,0,0.375-0.75-4.375-1.75c0,0,2.375,0.5,3.75,2S108.63,146.171,108.63,146.171z"/>
						<polygon points="99.505,126.671 98.255,133.171 99.255,125.546 						"/>
						<path d="M85.63,144.296c0,0,3.625-1.625,6.5-1.625l-5.875,2L85.63,144.296z"/>
					</g>
				</g>
			</g>
			<polygon points="96.505,140.671 86.38,136.921 85.505,134.921 85.63,136.796 84.005,136.546 83.005,134.296 83.505,136.671 
				81.505,136.171 80.255,133.796 80.38,136.296 79.005,135.921 77.88,134.671 78.505,136.296 76.88,137.546 79.005,136.671 
				80.63,136.671 79.38,138.296 81.38,136.796 83.505,137.171 82.255,139.296 84.505,137.546 85.88,137.546 84.63,139.171 
				86.88,137.671 95.88,141.296 			"/>
			<circle fill="#FFFFFF" stroke="#000000" stroke-width="0.3125" cx="77.318" cy="133.734" r="1.016"/>
			<circle fill="#FFFFFF" stroke="#000000" stroke-width="0.3125" cx="82.318" cy="139.359" r="1.016"/>
			<circle fill="#FFFFFF" stroke="#000000" stroke-width="0.3125" cx="79.568" cy="138.609" r="1.016"/>
			<circle fill="#FFFFFF" stroke="#000000" stroke-width="0.3125" cx="76.818" cy="137.984" r="1.016"/>
			<circle fill="#FFFFFF" stroke="#000000" stroke-width="0.3125" cx="82.943" cy="134.109" r="1.016"/>
			<circle fill="#FFFFFF" stroke="#000000" stroke-width="0.3125" cx="85.943" cy="134.984" r="1.016"/>
			<circle fill="#FFFFFF" stroke="#000000" stroke-width="0.3125" cx="85.193" cy="139.609" r="1.016"/>
			<circle fill="#FFFFFF" stroke="#000000" stroke-width="0.3125" cx="80.318" cy="133.984" r="1.016"/>
		</g>
	</g>
</g>
</svg>
